<?xml version="1.0" encoding="UTF-8" standalone="no"?>
<!-- Created with Inkscape (http://www.inkscape.org/) -->

<svg
   width="100mm"
   height="100mm"
   viewBox="0 0 100 100"
   version="1.1"
   id="svg1"
   xml:space="preserve"
   inkscape:version="1.3 (0e150ed6c4, 2023-07-21)"
   sodipodi:docname="DCR_favicon.svg"
   inkscape:export-filename="DCR_logo.png"
   inkscape:export-xdpi="96.810776"
   inkscape:export-ydpi="96.810776"
   xmlns:inkscape="http://www.inkscape.org/namespaces/inkscape"
   xmlns:sodipodi="http://sodipodi.sourceforge.net/DTD/sodipodi-0.dtd"
   xmlns="http://www.w3.org/2000/svg"
   xmlns:svg="http://www.w3.org/2000/svg"><sodipodi:namedview
     id="namedview1"
     pagecolor="#ffffff"
     bordercolor="#000000"
     borderopacity="0.25"
     inkscape:showpageshadow="2"
     inkscape:pageopacity="0.0"
     inkscape:pagecheckerboard="0"
     inkscape:deskcolor="#d1d1d1"
     inkscape:document-units="mm"
     inkscape:zoom="2.2166283"
     inkscape:cx="121.80662"
     inkscape:cy="219.25191"
     inkscape:window-width="2496"
     inkscape:window-height="1558"
     inkscape:window-x="-11"
     inkscape:window-y="-11"
     inkscape:window-maximized="1"
     inkscape:current-layer="layer1" /><defs
     id="defs1"><rect
       x="2811.3701"
       y="1090.8254"
       width="2827.5894"
       height="1380.9249"
       id="rect3572" /></defs><g
     inkscape:label="Layer 1"
     inkscape:groupmode="layer"
     id="layer1"><path
       style="fill:#000000;stroke-width:0.906469"
       d="m 51.273168,46.354592 c 1.445969,-0.196016 2.675608,-1.28748 3.593262,1.849019 l -1.365633,1.439453 c -1.842109,1.552662 -3.804237,3.614071 -3.988687,3.775579 -1.947926,1.705654 -2.747741,3.027781 -4.177025,5.212215 -1.356585,2.073291 -2.500167,3.340408 -5.387275,7.23234 -3.755877,5.06311 -5.596946,7.992569 -6.07383,9.664437 l -0.393704,1.380295 0.587884,0.439033 -0.0088,2.205176 -1.738447,2.104188 -0.530549,-1.056217 -0.427534,0.230071 c -1.510315,0.812605 -4.092327,5.263898 -5.671977,9.778151 l -5.550406,0.861016 c 3.305932,-3.537657 7.174659,-9.770787 7.551791,-12.167129 l 0.120207,-0.763861 -0.763149,-0.699892 -0.763136,-0.699874 -1.05941,0.0076 -1.059394,0.0076 -0.513046,1.335745 c -0.659336,1.716603 -1.887041,3.603602 -2.76573,4.250955 -0.744376,0.54844 -2.917131,1.268156 -3.84751,1.274536 -0.315564,0.0021 -1.208571,-0.202897 -1.984381,-0.455856 -1.68164,-0.548165 -3.340571,-1.936743 -4.294532,-3.594781 l -0.66309,-1.152424 0.03871,-1.446328 0.03875,-1.446318 0.733713,-1.16095 c 0.873366,-1.381871 1.85976,-2.086977 3.995091,-2.855693 1.630832,-0.587083 2.89428,-0.736858 3.144419,-0.372672 0.07829,0.113944 0.559749,0.279024 1.069829,0.366669 1.408736,0.242049 2.160274,0.755926 3.467723,2.371584 l 1.194017,1.475437 0.401261,-0.222693 c 0.220698,-0.12251 0.865319,-0.653883 1.432456,-1.180887 l 1.031254,-0.958085 0.616038,0.142692 0.615971,0.142822 -0.276137,-0.460412 c -0.151779,-0.253261 -0.471273,-0.608892 -0.709686,-0.790537 l -0.433622,-0.330114 -0.08561,0.273529 -0.08565,0.273658 -0.673161,-0.325771 c -0.370229,-0.179116 -1.03587,-0.323913 -1.479254,-0.32173 -0.443337,0.0022 -1.606305,-0.142959 -2.584319,-0.322685 -0.978049,-0.179663 -2.055174,-0.363425 -2.393703,-0.408258 l -0.615504,-0.08158 1.091711,-0.262506 c 0.620991,-0.149263 0.849534,-0.271622 0.530057,-0.283757 -0.713155,-0.02708 -2.281008,-0.764162 -2.850397,-1.34008 -1.452825,-1.469575 -2.140148,-4.756476 -1.330711,-6.364547 0.597252,-1.186555 1.982479,-2.621211 3.05492,-3.163937 l 0.961601,-0.486587 1.978349,0.0905 1.978337,0.09054 1.071271,0.5128 c 2.413036,1.155092 3.854404,3.273548 3.954919,5.812803 0.04958,1.252793 -0.267792,2.213326 -1.295028,3.919631 l -0.498377,0.827758 0.522313,0.259314 c 0.287327,0.142625 0.8437,0.850549 1.23662,1.573034 0.392858,0.722545 0.845966,1.353817 1.006927,1.402816 0.513911,0.156482 2.109286,-1.526214 3.867187,-4.078738 4.782372,-6.944476 4.969105,-7.288966 5.270522,-9.723992 m -27.03603,16.683989 c 1.18665,-1.701369 3.668781,-2.895181 6.274555,-3.017808 l 1.341497,-0.06318 -0.328628,-0.300552 c -0.841001,-0.770532 -4.496141,0.07139 -5.863869,1.351392 -0.822747,0.770007 -1.912182,2.195735 -1.915301,2.506623 -0.0014,0.127477 0.219865,-0.08674 0.492135,-0.475146 z m 0.0096,1.543221 0.460338,-0.244524 0.102562,0.264393 0.102538,0.264374 0.468693,-0.25339 c 0.58222,-0.314859 7.370863,-2.452616 7.790148,-2.45314 0.168457,-3.64e-4 0.301902,-0.106089 0.296861,-0.235213 -0.0051,-0.129221 -0.478241,-0.248569 -1.051374,-0.265316 l -1.042071,-0.03041 0.792007,-0.100179 c 0.986382,-0.124749 0.996559,-0.42181 0.0303,-0.885401 l -0.744701,-0.357288 -1.682324,0.3508 c -2.223028,0.463539 -3.026534,0.897201 -4.612779,2.48966 -1.388893,1.394306 -1.684369,1.866801 -0.91024,1.455765 z m 1.85808,-1.509436 c 1.409045,-0.845315 2.856335,-1.348567 3.905607,-1.358085 0.905322,-0.0079 0.447346,0.253854 -1.050572,0.601258 -0.742457,0.172115 -1.930219,0.696145 -2.6395,1.164417 -1.366605,0.902243 -1.568717,0.983427 -1.582479,0.635492 -0.0047,-0.119893 0.610102,-0.589462 1.366944,-1.043082 z m 0.977267,2.535925 c 1.054899,-0.340771 2.813596,-1.041207 6.473167,-2.578119 0.354811,-0.149005 0.588174,-0.353798 0.518607,-0.455097 -0.146111,-0.212788 -1.174434,-0.242667 -1.376206,-0.04002 -0.07478,0.07505 -1.151248,0.490992 -2.392111,0.924218 -4.066303,1.41964 -6.981089,3.362935 -3.223414,2.149056 z m -1.15582,1.771047 c 0.04371,-2.75e-4 0.859888,-0.263856 1.813657,-0.585745 2.645046,-0.89264 2.114906,-0.477002 -1.022212,0.801354 l -0.717815,0.292484 0.428795,0.222517 c 0.279468,0.145146 0.776095,0.129482 1.426796,-0.04487 0.548936,-0.147041 1.160479,-0.209523 1.358995,-0.138837 0.456083,0.162457 1.8908,-0.580504 2.933378,-1.518945 0.916945,-0.825431 1.084617,-0.891811 0.781634,-0.309393 -0.52876,1.016135 -2.48822,2.233045 -4.269508,2.65158 l -0.913723,0.214627 1.310586,0.01466 c 1.601179,0.01789 2.669809,-0.454074 3.745565,-1.654123 0.873203,-0.974134 1.436501,-2.575885 0.994787,-2.828798 -0.160013,-0.09172 -0.118572,-0.261245 0.110101,-0.451167 0.2019,-0.167225 0.358416,-0.476215 0.348059,-0.686454 -0.01222,-0.238053 -0.08299,-0.285604 -0.188698,-0.12606 -0.198789,0.299986 -2.850712,1.526543 -3.307149,1.529669 -0.400428,0.0028 -3.661357,1.375879 -4.380882,1.844688 -0.458611,0.298901 -0.737445,0.774586 -0.45269,0.772687 z m 4.848252,-1.355982 c 1.154416,-0.86599 2.554302,-1.606103 2.541355,-1.343655 -0.01188,0.240304 -3.113354,2.230806 -3.348667,2.14912 -0.100109,-0.03433 0.263153,-0.397174 0.806369,-0.806344 z M 17.5801,67.52924 c 0.809591,1.366507 1.518669,1.905812 2.496941,1.89912 0.263014,-0.0019 0.473785,-0.11375 0.468442,-0.248791 -0.0062,-0.153376 0.314239,-0.189746 0.853328,-0.09715 l 0.863083,0.148308 -0.01175,-0.297401 c -0.0082,-0.206695 0.129578,-0.179714 0.451349,0.08817 0.25483,0.212014 0.592171,0.38479 0.74994,0.383699 0.157831,-9.57e-4 0.291849,0.126403 0.297667,0.283608 0.02674,0.675617 0.76091,-0.529188 0.847123,-1.390205 0.05119,-0.511267 0.290668,-1.188175 0.532234,-1.504307 l 0.439063,-0.57477 0.256849,0.350665 c 0.141282,0.192799 0.272382,0.700341 0.291365,1.127791 0.04133,0.92739 0.402163,0.810646 0.569952,-0.18431 0.08212,-0.48682 0.229955,-0.666294 0.47643,-0.578551 0.849283,0.302427 0.828472,-2.485207 -0.03034,-4.05775 -0.640837,-1.173451 -1.628905,-1.793257 -3.624113,-2.273362 -1.928034,-0.463901 -2.056954,-0.449829 -2.364641,0.259159 l -0.262978,0.605954 0.274811,0.157599 c 0.151232,0.08653 -0.205591,0.170841 -0.792881,0.18707 -0.58726,0.01629 -1.231974,0.165817 -1.432723,0.332246 -0.412533,0.341978 -0.458503,1.08397 -0.08062,1.300352 0.137812,0.07891 0.254302,0.32225 0.25889,0.540691 l 0.0083,0.397228 -0.265834,-0.40934 c -0.543214,-0.83639 -0.804559,-0.438522 -0.604437,0.920133 0.131939,0.895833 0.452825,1.698718 0.989485,2.475623 0.894885,1.295724 0.929832,1.384417 0.482635,1.225199 C 18.95042,68.322747 17.273089,64.417 17.483673,63.393936 l 0.132519,-0.643916 -0.469981,0.708019 c -0.699596,1.053862 -0.556137,2.401228 0.433498,4.0716 z m 5.880676,1.053689 c 0.278347,0.232194 0.510706,0.527427 0.515809,0.656607 0.0051,0.12922 -0.218681,0.04502 -0.497204,-0.186884 -0.278359,-0.232215 -0.510716,-0.527446 -0.515807,-0.656608 -0.0051,-0.129223 0.218679,-0.04502 0.497202,0.186885 z m -0.725785,1.762151 c 0.168481,6.83e-4 0.301951,-0.104231 0.296928,-0.233363 -0.005,-0.129362 -0.312199,-0.231243 -0.682476,-0.22664 l -0.673176,0.0081 0.376252,0.22514 c 0.20697,0.1238 0.514107,0.225827 0.682507,0.226636 z m 2.559757,-0.97323 c 0.220004,-0.257648 0.282726,-2.343791 0.0665,-2.211008 -0.129806,0.07986 -0.216937,0.632065 -0.19338,1.227267 0.02359,0.595215 0.0807,1.037889 0.126872,0.983726 z m 4.578353,8.063529 c 1.495691,0.704651 1.6371,0.515089 0.499249,-0.668964 -0.847331,-0.881743 -1.321472,-0.989084 -2.339295,-0.529279 l -0.640932,0.289532 0.585275,0.146274 c 0.321941,0.08022 1.175017,0.423437 1.895598,0.763022 z"
       id="path1"
       sodipodi:nodetypes="cccsssscccccsccscccccssssscccssssscsscccsscccsssscssssscccssscssssccsscccccccsssscsscssscscsssssssssssssscsssssscsssscssssssssssssscsssssscscssssscssssscssssscssssssssssssssssssssssssscsscs" /><text
       xml:space="preserve"
       transform="matrix(0.0865245,0,0,0.08273726,-181.24745,-91.000687)"
       id="text3571"
       style="font-style:normal;font-variant:normal;font-weight:normal;font-stretch:normal;font-size:450px;line-height:0.85;font-family:Ebrima;-inkscape-font-specification:'Ebrima, Normal';font-variant-ligatures:normal;font-variant-caps:normal;font-variant-numeric:normal;font-variant-east-asian:normal;letter-spacing:4.34848px;word-spacing:0.15px;white-space:pre;shape-inside:url(#rect3572);display:inline;fill:#000000;fill-opacity:1;stroke:#4d4d4d;stroke-opacity:1"><tspan
         x="2811.3711"
         y="1451.6299"
         id="tspan2"><tspan
           dx="0 -0.15000001"
           style="font-weight:600;font-size:501.748px;font-family:Montserrat;-inkscape-font-specification:'Montserrat Semi-Bold'"
           id="tspan1">D&#10;</tspan></tspan><tspan
         x="2811.3711"
         y="1879.5941"
         id="tspan5"><tspan
           dx="0 -0.15000001"
           style="font-weight:600;font-size:501.748px;font-family:Montserrat;-inkscape-font-specification:'Montserrat Semi-Bold'"
           id="tspan4">C&#10;</tspan></tspan><tspan
         x="2811.3711"
         y="2307.5584"
         id="tspan10"><tspan
           style="font-weight:600;font-size:501.748px;font-family:Montserrat;-inkscape-font-specification:'Montserrat Semi-Bold'"
           id="tspan6">R</tspan><tspan
           dx="-0.15000001"
           style="font-weight:300;font-size:334.499px;font-family:Montserrat;-inkscape-font-specification:'Montserrat Light'"
           id="tspan8">&#10;</tspan></tspan><tspan
         x="2811.3711"
         y="2690.0582"
         id="tspan12"><tspan
           style="font-weight:300;font-size:334.499px;font-family:Montserrat;-inkscape-font-specification:'Montserrat Light'"
           id="tspan11">&#10;</tspan></tspan><tspan
         x="2811.3711"
         y="2787.0895"
         id="tspan14"><tspan
           style="font-weight:300;font-size:334.499px;font-family:Montserrat;-inkscape-font-specification:'Montserrat Light'"
           id="tspan13">&#10;</tspan></tspan><tspan
         x="2811.3711"
         y="3169.5895"
         id="tspan17"><tspan
           style="font-weight:300;font-size:334.499px;font-family:Montserrat;-inkscape-font-specification:'Montserrat Light'"
           id="tspan15">&#10;</tspan></tspan></text><path
       d="m 48.133863,51.513087 -1.474367,-1.138375 c -2.84319,-2.195329 -4.161257,-4.051278 -4.98328,-7.016571 l -0.619756,-2.235718 0.168933,-2.222531 0.168968,-2.222537 1.896026,-3.066079 1.896046,-3.066029 0.878273,-0.645288 c 0.482977,-0.354998 1.243182,-0.820877 1.689108,-1.035503 l 0.810747,-0.390255 0.833811,1.344797 c 0.781498,1.260365 1.205937,2.000899 2.347298,4.095459 0.605759,1.111637 1.14691,1.265721 2.189181,0.623517 l 0.812163,-0.500417 0.778867,-1.268843 c 0.428673,-0.697631 0.883114,-1.625456 1.010766,-2.061344 0.128013,-0.435746 0.290235,-0.980823 0.361524,-1.210979 l 0.129328,-0.418599 1.272367,-0.284713 c 1.446382,-0.323676 1.847711,-0.6681 2.412127,-2.070311 0.219541,-0.545457 0.670224,-1.616156 1.001562,-2.37936 0.854868,-1.969073 0.95277,-2.569186 0.590015,-3.617299 l -0.3199,-0.924207 -0.99583,-0.460181 c -1.526492,-0.705535 -3.079554,-0.732783 -5.428657,-0.09565 l -2.08171,0.564647 -0.791863,1.009287 c -0.435452,0.555201 -0.878338,0.958526 -0.983773,0.896659 -0.12948,-0.07728 0.05084,-0.400772 0.56062,-1.005868 1.657529,-1.966764 3.139845,-5.030859 2.930468,-6.057499 -0.116052,-0.568758 -0.24992,-0.653766 -0.826757,-0.524786 -0.586568,0.130655 -0.569593,0.425295 0.03713,0.647641 l 0.479523,0.175737 -0.128557,0.467852 c -0.29124,1.060082 -2.251566,4.33151 -3.011014,5.023775 l -0.760928,0.693612 0.354608,-1.280456 c 0.194995,-0.704233 0.427364,-1.574967 0.515168,-1.935297 0.08792,-0.360312 0.444212,-1.219125 0.790969,-1.908685 0.372106,-0.739597 0.532777,-1.254135 0.392076,-1.254689 -0.296794,-0.0013 -0.907543,1.346316 -1.59579,3.522255 -0.530117,1.675501 -0.897189,2.314396 -1.276995,2.221455 -0.214559,-0.05297 0.0524,-1.77893 0.706095,-4.563552 0.495796,-2.112004 -0.07643,-1.628566 -0.788457,0.666171 -0.315773,1.017367 -0.724999,2.214786 -0.909635,2.660859 l -0.335528,0.811155 -0.185615,-0.209089 c -0.102044,-0.115081 -0.360295,-0.145466 -0.573546,-0.06799 l -0.3878,0.140966 0.134126,-0.225274 c 0.07208,-0.124659 0.01695,-0.226727 -0.123984,-0.227343 -0.141119,-3.62e-4 -0.292836,0.151528 -0.336835,0.338738 -0.04562,0.186149 -0.205415,0.39731 -0.35694,0.468651 -0.291916,0.137975 -0.290331,0.177728 -0.13697,-3.157938 l 0.08322,-1.808516 -0.488826,-0.80553 c -0.704879,-1.161518 -2.312544,-2.046085 -2.669697,-1.468511 -0.258165,0.416231 -0.812563,3.332876 -0.9048,4.753985 l -0.08641,1.331405 -0.32482,0.152935 c -0.353661,0.166438 -0.354172,0.151548 0.09508,2.311989 0.262804,1.263684 0.226819,1.850327 -0.101764,1.657483 -0.07661,-0.04688 -0.567835,-0.644112 -1.089788,-1.329979 -0.521843,-0.685985 -1.20464,-1.400253 -1.517303,-1.587153 l -0.568531,-0.339894 -0.04712,0.521389 -0.04711,0.521405 0.75787,0.737478 c 1.405681,1.368171 2.933881,3.768791 3.462034,5.438334 0.448616,1.418235 0.476578,2.487209 0.06738,2.578771 -0.433154,0.0969 -4.214297,-4.128556 -5.39731,-6.031688 l -0.591141,-0.950925 0.578394,-0.717342 0.578397,-0.717344 -0.605,0.157521 c -0.332738,0.08679 -0.831389,0.08822 -1.10809,0.0035 -0.798694,-0.244621 -2.826017,-2.262651 -3.137272,-3.123192 L 33.531149,17.66709 34.48607,17.066816 c 0.525277,-0.330116 1.614847,-0.723766 2.421266,-0.874943 l 1.466264,-0.274897 1.624775,1.082575 c 0.893621,0.595465 1.742264,1.26869 1.885869,1.496145 l 0.261129,0.413491 0.144076,-0.235814 c 0.08071,-0.128922 0.06899,-0.467235 -0.02448,-0.751146 l -0.169706,-0.51609 -1.634516,-1.072471 -1.634412,-1.072637 -0.930829,-0.07327 c -0.511941,-0.04031 -1.346774,0.03123 -1.855141,0.158976 -1.18064,0.296737 -3.331341,1.569019 -3.561703,2.107078 -0.272862,0.636749 0.610088,1.850193 2.627191,3.610939 l 1.807938,1.578007 -0.323259,0.346635 -0.323246,0.346637 0.349459,0.206048 c 0.19269,0.11253 1.191184,1.211226 2.219422,2.440592 1.02823,1.229333 2.066636,2.446729 2.307534,2.705336 l 0.437918,0.470286 -0.270324,1.682943 c -0.148701,0.925599 -0.293726,2.087094 -0.322297,2.58111 -0.0285,0.49399 -0.235942,1.782675 -0.460808,2.863775 -0.69816,3.356656 -0.672018,4.897282 0.128413,7.569588 0.516795,1.724992 1.308277,3.296665 2.271405,4.509797 1.910242,2.406224 1.934737,2.549536 0.35861,2.096613 -1.715283,-0.492948 -5.093038,-1.854464 -6.189095,-2.494828 -2.055411,-1.200318 -3.304709,-3.173645 -4.518536,-7.134146 -1.0577,-3.451063 -1.59537,-4.581314 -3.167186,-6.657614 -0.585704,-0.773683 -1.237682,-1.784258 -1.448828,-2.24572 -1.276148,-2.788803 -2.157377,-3.693462 -4.7347,-4.860724 -3.671343,-1.662729 -4.635048,-2.211486 -7.071344,-4.026766 -4.028779,-3.001661 -5.730576,-4.88107 -5.989722,-6.614945 -0.2203766,-1.474129 -0.03206,-2.439462 0.724238,-3.712797 0.364652,-0.612658 0.620521,-1.190249 0.569751,-1.28282 -0.133682,-0.24374 -1.8966076,0.705141 -3.1499413,1.695433 -3.1665741,2.501968 -5.0800272,6.072881 -6.0843298,11.354603 -0.471706,2.4809 -0.5032415,3.556972 -0.1571139,5.363797 0.1654677,0.863217 0.304193,2.266909 0.3085279,3.119216 0.00764,1.523541 0.5073432,3.436716 1.1591617,4.438274 0.1821491,0.279796 0.9238168,1.435663 1.6482088,2.568547 0.7243723,1.132878 1.8937623,2.743235 2.5985613,3.57857 0.7047497,0.835411 1.4827147,1.887068 1.7286907,2.337126 0.7639096,1.397719 1.6270866,2.40055 2.5149026,2.921738 1.147723,0.673507 7.109748,2.47908 8.846998,2.678936 1.812632,0.208542 4.249793,-0.124539 6.52497,-0.891737 5.324733,-1.795575 6.683215,-1.830278 11.253919,-0.28746 1.11747,0.377193 3.010853,0.987633 4.207676,1.356615 2.655773,0.818738 3.942391,0.908885 3.981257,1.052204 M 61.266801,20.865257 c -0.424925,-0.737295 0.302573,1.734415 -0.6919,3.621534 -0.492623,0.934728 -0.851461,1.780177 -0.797452,1.878696 0.167294,0.305086 -0.510371,1.197856 -1.158302,1.526213 -1.160504,0.588091 -1.61669,0.183133 -1.805752,-1.6028 l -0.098,-0.926106 -0.356216,0.114561 c -0.195777,0.06309 -0.312219,0.185621 -0.257692,0.273281 0.123121,0.198918 -0.214883,-0.134418 -0.493391,-0.486819 l -0.209234,-0.264736 -0.0626,0.369027 -0.06261,0.369041 -0.188122,-0.258146 c -0.103474,-0.141991 -0.301479,-0.38912 -0.439911,-0.54925 -0.339807,-0.392866 -0.151348,-0.642149 0.290056,-0.383239 0.300629,0.175979 1.002996,-0.01185 1.193414,-0.319765 0.134207,-0.218425 -2.055126,-0.258845 -2.327316,-0.04325 l -0.303667,0.240438 -0.720595,-0.493447 -0.720519,-0.493564 0.124282,-0.333354 0.124275,-0.333326 0.725079,0.425582 0.725039,0.425671 0.71621,-0.28947 c 0.894907,-0.361692 0.858396,-0.594667 -0.08563,-0.544894 -0.779772,0.04114 -1.899004,-0.254177 -1.765332,-0.464982 0.268949,-0.4244 2.146816,-1.853209 2.904703,-2.209537 2.186922,-1.028212 6.633256,2.300607 5.742077,0.75436 z m -15.309094,-5.785231 0.481335,0.730459 -0.103367,2.065473 -0.103358,2.06555 -0.783894,1.086795 c -0.913081,1.265807 -1.724498,2.063706 -1.96658,1.934472 -0.285544,-0.150943 0.134218,-6.029965 0.468972,-6.578395 0.06535,-0.104858 0.128617,-0.450295 0.144593,-0.76601 0.0152,-0.315939 0.127422,-0.850821 0.249273,-1.188657 l 0.221541,-0.61429 0.455207,0.267435 c 0.251089,0.145743 0.671783,0.596008 0.936585,0.997606 z m -1.035617,1.730275 c 0.03636,-0.103527 0.160191,0.324526 0.484545,0.513168 l 0.589836,0.342943 -0.169402,-0.324546 C 45.605093,16.91662 44.838001,17.049854 44.921941,16.810574 Z m 5.424351,5.350107 c 0.319266,0.337746 0.57689,0.819029 0.572081,1.069897 -0.0047,0.250897 0.02026,0.723541 0.05568,1.050312 0.0849,0.783397 -0.19017,1.189231 -1.617623,2.386774 -1.179415,0.989394 -4.739515,2.815997 -4.969866,2.549841 -0.06509,-0.07659 -0.290383,-1.126396 -0.499526,-2.334542 l -0.380171,-2.196641 0.423498,-0.680106 c 0.619157,-0.993743 2.991969,-2.804523 4.084002,-3.116642 0.538013,-0.153802 1.45784,0.347585 2.331469,1.271312 z m 3.79911,3.076691 c -0.152254,0.244294 -0.457559,0.239888 -1.581797,-0.02542 l -0.748105,-0.176546 -0.149274,-0.544849 c -0.08189,-0.29974 -0.04453,-0.564802 0.0833,-0.58909 0.127901,-0.02405 0.21019,0.06968 0.183264,0.208311 -0.06158,0.316605 1.057501,0.759931 1.638293,0.648907 0.477346,-0.09127 0.185731,0.545921 0.574189,0.478715 z m 1.569211,2.578965 0.328755,0.861053 -0.273941,1.278233 c -0.155401,0.725204 -0.54292,1.7131 -0.895576,2.283457 l -0.621494,1.005266 -0.670355,0.270957 -0.670341,0.2709 -1.083818,-1.693928 c -1.860166,-2.907373 -2.552471,-4.36601 -2.280718,-4.805381 0.166617,-0.269286 1.709565,-0.721094 1.960362,-0.573868 0.105478,0.06236 0.494653,-0.04045 0.864328,-0.227745 l 0.672135,-0.34061 -0.422805,-0.07637 c -0.665198,-0.119926 -0.779505,-0.186594 -0.735821,-0.428305 0.0463,-0.255694 1.046815,-0.179971 1.553594,0.117483 0.183887,0.107777 0.447486,0.112247 0.585992,0.0095 L 54.27683,25.58 l 0.554439,0.687677 c 0.304938,0.378229 0.702443,1.075017 0.88328,1.548588 z m -4.224139,-1.677195 c 0.05709,0.201913 -0.850227,0.277577 -0.892752,0.122128 -0.07126,-0.258653 0.434452,-0.523847 0.70076,-0.367492 0.138281,0.08202 0.224968,0.191945 0.191947,0.245412 z M 9.1127684,15.544175 c 0.10811,0.90604 0.363387,2.248463 1.0197226,3.248355 0.674453,1.027437 3.958826,4.057719 5.968999,5.50726 1.068533,0.770393 3.04028,1.958148 4.860373,2.927606 1.684277,0.897324 3.456923,1.882916 3.938944,2.190624 l 0.876474,0.559283 1.284032,2.331124 c 0.706244,1.2821 1.768028,3.074666 2.35961,3.983429 l 1.0755,1.652363 0.840587,3.074395 c 0.462408,1.690928 1.112573,3.692015 1.444866,4.446838 l 0.604163,1.372399 -0.486922,-0.204388 c -0.267853,-0.112373 -0.661142,-0.464034 -0.873936,-0.781166 -0.768478,-1.144133 -1.601773,-2.262875 -1.750627,-2.350284 -0.320665,-0.188653 0.09065,0.93706 0.59603,1.629933 0.53263,0.730345 0.576532,1.147968 0.09062,0.862719 -0.143163,-0.08482 -0.264018,-0.256198 -0.26725,-0.382822 -0.0037,-0.126303 -0.211316,-0.522504 -0.46204,-0.880291 -0.250628,-0.357792 -0.485141,-0.958137 -0.521118,-1.334 -0.03606,-0.375887 -0.348402,-1.24165 -0.693943,-1.923959 -0.345688,-0.682289 -1.027666,-2.634029 -1.515561,-4.337144 -0.487759,-1.703152 -0.919061,-3.043184 -0.958092,-2.977973 -0.03829,0.0656 0.326239,1.630938 0.811841,3.479279 0.485449,1.848394 0.853884,3.407336 0.818614,3.464329 -0.102486,0.165415 0.584174,2.437476 0.772458,2.556569 0.319853,0.202143 0.605289,1.262439 0.370443,1.375599 -0.148118,0.07137 -0.275922,-0.10009 -0.348152,-0.467435 -0.06284,-0.319018 -0.206351,-0.559515 -0.318849,-0.534325 -0.11227,0.02538 -0.128559,0.18484 -0.03515,0.355154 l 0.169568,0.309404 -0.321488,0.07196 -0.321511,0.07186 -0.307432,-1.146381 c -0.319552,-1.191635 -0.576179,-1.303109 -0.412118,-0.179008 0.05184,0.355105 0.04611,0.723482 -0.01271,0.818626 -0.129933,0.211104 -0.829036,-0.7673 -1.288479,-1.806796 -0.184094,-0.415583 -0.382245,-0.678662 -0.44036,-0.584644 -0.05876,0.0938 0.01568,0.430068 0.164138,0.746638 0.148385,0.31669 0.392485,0.853359 0.542267,1.192803 l 0.272455,0.617208 -0.512897,-0.143225 c -2.25703,-0.629753 -2.746086,-1.688064 -4.211701,-9.117215 -0.7765,-3.935897 -1.501115,-6.897766 -1.328131,-5.428859 0.03191,0.270949 0.131162,0.747154 0.220674,1.058201 0.08995,0.311002 0.295341,1.479383 0.45765,2.596172 0.162228,1.116773 0.383263,2.451371 0.49114,2.965785 0.565475,2.69576 1.098876,6.059204 0.989095,6.236719 -0.237653,0.383808 -4.5472,-3.070308 -5.967019,-4.782475 -0.350567,-0.422564 -0.624805,-1.252247 -0.846166,-2.558961 -0.180102,-1.063465 -0.414463,-2.449751 -0.520672,-3.080638 -0.387368,-2.300378 -0.655336,-3.574088 -1.286827,-6.116784 -0.685654,-2.760427 -1.190958,-4.100612 -0.718193,-1.904655 0.5856,2.72016 0.959706,4.505164 1.015553,4.845812 0.03178,0.193832 0.273663,1.641777 0.537466,3.217701 0.533414,3.18607 0.681197,4.47537 0.517251,4.512034 -0.230592,0.05164 -1.990426,-2.069218 -3.626907,-4.371395 -1.614656,-2.271435 -1.9660756,-3.136363 -2.1889786,-5.387311 -0.116394,-1.175542 -0.232474,-2.20189 -0.257919,-2.280677 -0.02449,-0.07898 -0.110877,-1.107109 -0.18968,-2.285107 -0.158076,-2.361307 -0.371725,-4.008004 -0.494331,-3.809748 -0.04499,0.06946 -0.04223,0.843164 0.0031,1.716988 0.04531,0.873792 0.09527,1.857466 0.110968,2.185891 0.01576,0.328503 0.107173,1.374715 0.203235,2.324949 0.305944,3.027412 0.373489,4.310704 0.228581,4.34315 -0.07763,0.0174 -0.229214,-0.261501 -0.336832,-0.619804 -0.108188,-0.358146 -0.5963907,-1.669789 -1.0860477,-2.914453 -2.1571972,-5.48334 -2.0067876,-9.280955 0.456329,-11.522149 0.9349347,-0.850793 1.3377317,-0.873715 1.0597297,-0.06041 -0.117032,0.342119 -0.316976,0.983096 -0.264263,1.424968 z m -3.0939105,1.532857 c 0.00918,0.399624 -0.314271,1.782661 -0.2338428,3.226129 0.082515,1.480145 1.3177936,5.93769 2.2425726,8.092084 0.333937,0.778078 1.0810647,2.083564 1.6603857,2.901169 0.5792146,0.817608 1.4421496,2.058925 1.9175576,2.758441 l 0.864434,1.27188 -0.598396,-0.106068 c -0.329177,-0.05814 -0.859293,-0.22247 -1.177956,-0.365816 -0.31876,-0.142836 0.31214,0.273251 1.402288,0.924463 l 1.981949,1.184092 1.377046,1.488811 1.377086,1.488764 -0.347649,0.03853 c -1.59723,0.177238 -5.488746,-0.491532 -8.7679963,-1.507012 -0.227562,-0.07129 0.100786,0.116229 0.730035,0.41549 1.6594103,0.787829 3.0317543,1.096914 7.0384853,1.585764 l 2.409002,0.293928 0.899627,0.540297 c 0.494715,0.297261 1.587464,1.09445 2.428237,1.771694 l 1.528643,1.231434 -1.954187,0.254801 c -1.074832,0.140162 -2.23144,0.254203 -2.570268,0.253506 -1.764785,-0.0038 -5.613915,-0.288822 -6.929998,-0.51312 -1.9766746,-0.33686 -3.9450773,-2.11864 -5.3633506,-4.8547 C 5.4854945,38.589109 4.8107578,37.364726 4.4331323,36.730709 3.6288001,35.380303 3.3430402,34.178339 3.441219,32.559381 3.4802841,31.916635 3.3586434,30.690648 3.1708991,29.835029 2.5689365,27.090908 3.29269,22.121084 4.7957582,18.678237 5.1507253,17.865043 5.5380102,16.956542 5.6563195,16.659245 l 0.2149923,-0.540547 0.1404052,0.371253 c 0.077198,0.204182 0.08025,0.46854 0.00672,0.587372 z m 2.7599225,16.988446 c 0.131685,-0.216806 0.526736,0.362714 0.725983,0.422035 0.199355,0.0593 0.03484,-0.08291 -0.36367,-0.314358 -0.399597,-0.231686 -0.494023,0.11005 -0.362544,-0.10742 z m 20.5652186,9.308446 c -0.354788,0.08247 -0.216024,0.0669 -0.685237,-1.154158 -0.194075,-0.50512 -0.317329,-0.979179 -0.273781,-1.053481 0.110463,-0.191743 1.304169,2.12744 0.959054,2.207632 z m 0.998765,4.594483 c -0.190891,0.308732 -0.928216,0.655988 -2.618805,1.233484 -2.646009,0.903872 -5.833752,1.356265 -7.161619,1.016378 -0.292762,-0.07548 -0.648626,-0.128159 -0.790423,-0.118291 -0.141785,0.01004 -0.906146,-0.190529 -1.698414,-0.445685 -0.792284,-0.254979 -2.205401,-0.703259 -3.140122,-0.996419 -0.934739,-0.29311 -2.055515,-0.741881 -2.490588,-0.997308 -0.799999,-0.469519 -2.178655,-1.900524 -2.6255286,-2.725165 l -0.243294,-0.448868 0.330037,-0.106014 c 0.1815496,-0.05841 0.4059316,-0.0615 0.4987756,-0.007 0.615806,0.361489 8.039485,0.938988 10.431114,0.811468 1.120801,-0.05974 2.281909,-0.09144 2.58014,-0.07037 0.598851,0.04227 3.675553,1.293674 3.737574,1.520258 0.09982,0.363313 -5.472215,1.708399 -7.961478,1.921914 -0.892109,0.07656 -1.660175,0.196397 -1.706855,0.266415 -0.154498,0.232174 4.001092,0.05351 5.365743,-0.230508 2.600886,-0.541324 5.265065,-0.952874 6.186119,-0.955536 1.24721,-0.0036 1.397221,0.647671 1.307693,0.331089 z M 50.31259,7.7935021 C 49.586536,7.7338851 49.273683,8.323537 49.572604,8.95221 l 0.231112,0.48606 0.451505,0.02876 0.451458,0.02875 0.331757,-0.658793 C 51.41754,8.084399 51.183564,7.7481121 50.312633,7.7935768 Z m 2.285201,4.3382869 c -0.444487,0.329655 -0.518135,0.868217 -0.157608,1.152199 0.41742,0.329132 0.772179,0.115927 0.890094,-0.534489 0.09596,-0.529608 -0.347185,-0.90333 -0.73246,-0.617807 z m -2.212885,1.27564 c 0.336274,-0.07819 0.08944,0.594928 0.157168,0.579763 0.170057,-0.0375 0.126397,-1.000414 -0.04979,-1.10386 -0.07716,-0.04718 -0.126925,0.189975 -0.108036,0.524262 z m -1.073396,-0.02667 c -0.182603,0.896452 -0.200113,2.687789 -0.026,2.648837 0.179406,-0.03976 0.446484,-3.106503 0.280262,-3.216921 -0.06716,-0.04465 -0.181638,0.211021 -0.254426,0.568024 z m -2.062715,-1.435556 c -0.509632,0.113629 -0.547078,0.801935 -0.05952,1.088145 l 0.450593,0.265006 0.05675,-0.333966 c 0.03124,-0.18365 0.09568,-0.395985 0.14222,-0.472118 0.139107,-0.227592 -0.279913,-0.616194 -0.591364,-0.545635 z m 5.506443,5.864698 c -0.229485,0.376069 -0.27513,0.530905 -0.100934,0.344387 0.174175,-0.186641 0.362194,-0.494086 0.417963,-0.683331 0.05576,-0.189366 0.07732,0.57927 -0.316865,0.339077 z m -4.749933,-2.784879 c -0.113961,0.02166 -0.200921,0.690697 -0.311018,1.326574 -0.110098,0.635878 -0.290681,1.450833 -0.401289,1.811037 -0.253059,0.824256 -0.188057,1.102606 0.135693,0.579351 0.405148,-0.655065 0.862049,-2.585363 0.77168,-3.259832 -0.04629,-0.34518 -0.133844,-0.55093 -0.194893,-0.457217 z m 0.497154,2.784439 c 0.0361,-0.132502 -0.120838,0.375973 -0.111398,0.573075 l 0.01741,0.358509 0.292203,-0.466949 c 0.161112,-0.256615 0.211152,-0.514558 0.111401,-0.573089 -0.09917,-0.0589 -0.345833,0.240942 -0.30983,0.108431 z"
       style="fill:#000000;stroke-width:0.774839"
       id="path1-9"
       sodipodi:nodetypes="ccccccccccccsscccccccsccccccccccsccscccccccsccccccccccccccscccccccccccccccccccccccccccccccccccccccccccccccccsscccccccccccccscccsccccccccccscccscccccccccccsccsccccccccccccccccccsccccccccccccccscccccsccccccccccccccccccccccccccccccccccccscccccccccccccccsccccccccccccccccscccccccccscccccccccccccccccccccccccccccccccccccccccccccccccccccccsccsscsccccccccsccccccscccsccccccccccccccccccccccccccccccccccscccccccccccc" /><text
       xml:space="preserve"
       style="font-style:normal;font-variant:normal;font-weight:normal;font-stretch:normal;font-size:39.6875px;line-height:0.85;font-family:Montserrat;-inkscape-font-specification:Montserrat;letter-spacing:0.343958px;word-spacing:0.0396875px;fill:#000000;stroke:#000000;stroke-width:0.55"
       x="311.06601"
       y="46.083855"
       id="text3"><tspan
         sodipodi:role="line"
         id="tspan3"
         style="stroke-width:0.55"
         x="311.06601"
         y="46.083855" /></text><g
       id="g18"
       transform="matrix(-1.0353454,1.0217749,-1.098327,-1.0244431,337.63668,71.672075)"><path
         d="m 145.49789,145.37365 c 0,0 -1.145,2.17537 -4.24453,1.66633 -3.09954,-0.50903 -3.13409,-1.76774 -3.13409,-1.76774 -0.60442,-0.62129 -1.7122,-0.19762 -2.61891,-1.09454 l -0.84237,-0.8334 -0.24425,-0.67771 c -0.50668,-1.40582 -0.33603,-2.34664 0.63176,-3.48285 l 0.69805,-0.81951 0.68222,-0.22756 c 0.37521,-0.12515 0.88945,-0.21889 1.14274,-0.20831 l 0.46056,0.0192 -0.0771,-1.3204 c -0.0423,-0.72622 0.0224,-1.64551 0.144,-2.04284 l 0.22109,-0.72246 0.84716,-0.87446 0.84719,-0.8744 0.79094,-0.1751 c 0.53183,-0.11775 1.16553,-0.0726 1.9345,0.13775 l 1.14355,0.31287 0.64413,0.63334 c 0.86802,0.85348 1.44759,2.17958 1.52882,3.498 0.0364,0.58952 0.11747,1.01957 0.1803,0.95567 0.0628,-0.0639 0.67727,-0.12772 1.36538,-0.14179 l 1.25112,-0.0255 0.79205,0.42071 c 0.97233,0.51647 1.38948,0.91908 1.87499,1.8096 0.67891,1.2452 0.8671,2.09027 0.66983,3.0078 l -0.18784,0.87371 -0.86239,0.87182 -0.86237,0.87182 -0.87974,0.2634 c 0,0 -1.29904,0.17703 -1.94858,0.13295 -0.60678,-0.0412 -1.78683,-0.36901 -1.78683,-0.36901 m 5.54802,-3.02806 c 0.066,-0.43704 0.0417,-1.11501 -0.0543,-1.5066 l -0.17444,-0.71196 -0.64059,-0.62298 c -1.94816,-1.89444 -5.49583,-1.19207 -5.89565,1.16721 -0.0483,0.28491 -0.1384,0.56947 -0.20029,0.63242 -0.0618,0.0629 -0.0715,0.20451 -0.0213,0.31458 l 0.0912,0.20013 0.38991,-0.48031 c 0.21449,-0.26416 0.53944,-0.52124 0.72216,-0.57128 l 0.33223,-0.091 -0.47277,0.48784 c -0.26022,0.26815 -0.54946,0.66255 -0.64319,0.87605 l -0.1704,0.38818 0.32723,0.43213 0.32724,0.43212 0.72939,0.0728 c 0.98469,0.0982 4.30711,-0.34472 4.79629,-0.63944 0.15554,-0.0937 0.1156,0.005 -0.0952,0.23473 -0.21586,0.23547 -0.38152,0.32135 -0.4084,0.21166 -0.0248,-0.10152 -0.25391,-0.10225 -0.50896,-0.002 -0.25508,0.1006 -0.55597,0.19468 -0.66868,0.20908 -0.1127,0.0144 -0.68733,0.10533 -1.27696,0.20207 -0.58965,0.0968 -1.33591,0.13132 -1.65839,0.0768 -0.32246,-0.0544 -0.62562,-0.061 -0.67367,-0.0143 -0.13031,0.12642 0.33295,0.53377 0.54732,0.48126 0.10192,-0.025 0.31069,0.0778 0.46387,0.22845 0.35001,0.34414 1.62158,0.42524 2.71013,0.17287 l 0.83294,-0.19314 0.58661,-0.59659 0.58659,-0.59659 z m -2.06651,1.70371 c -0.66514,0.2321 -2.17453,0.36734 -2.17862,0.1952 -0.002,-0.0684 0.56484,-0.22852 1.25881,-0.35585 0.69398,-0.12735 1.40818,-0.29249 1.58712,-0.36696 l 0.32533,-0.13544 -0.2229,0.23616 c -0.12257,0.12991 -0.46898,0.32198 -0.76972,0.42692 z m 1.52981,-2.21124 c -0.0535,-0.11767 -0.4179,-0.31491 -0.80956,-0.43831 -0.85371,-0.26896 -0.7587,-0.46806 0.18181,-0.38099 l 0.67814,0.0628 -0.42613,-0.32534 c -0.26768,-0.20434 -0.36536,-0.35662 -0.26212,-0.41009 0.0901,-0.0466 0.37119,0.0871 0.62443,0.29728 l 0.46043,0.38209 -0.17758,0.18062 c -0.0977,0.0993 -0.13108,0.22633 -0.0742,0.28223 0.0569,0.056 0.0581,0.2056 0.003,0.33265 -0.0648,0.14889 -0.13518,0.15499 -0.19802,0.0171 z m -1.15342,0.52568 c -0.39861,-0.009 -0.88428,-0.1136 -1.07931,-0.23363 l -0.35456,-0.21824 0.86434,0.0471 c 1.53698,0.0837 2.03254,0.43591 0.56953,0.4048 z m -2.40109,0.17552 c -0.64811,0.0285 -0.70792,-0.0649 -0.12303,-0.19187 0.26077,-0.0565 0.52022,-0.0576 0.57657,-0.003 0.14759,0.14511 0.0887,0.17033 -0.45354,0.19408 z m -2.67811,2.53778 c -0.19142,-0.27113 -0.43756,-0.63634 -0.547,-0.81157 -0.11539,-0.18479 -0.25197,-0.26469 -0.32512,-0.19029 -0.0694,0.0705 -0.056,0.19717 0.0296,0.28138 0.0856,0.0842 0.14752,0.34996 0.13755,0.59057 -0.011,0.2666 0.12888,0.58203 0.35824,0.80755 l 0.37635,0.37004 0.15923,-0.27734 c 0.10484,-0.18259 0.0403,-0.44577 -0.1888,-0.77034 z m -1.07691,1.32566 c -0.0539,-0.053 -0.3206,-0.11032 -0.59259,-0.12736 -0.5085,-0.0318 -0.93518,-0.32034 -0.87373,-0.59082 0.0306,-0.13471 0.96344,-0.16919 0.97797,-0.0363 0.0193,0.17703 0.60468,0.60057 0.69826,0.5054 0.0626,-0.0637 -0.0933,-0.31937 -0.34643,-0.56827 l -0.46024,-0.45254 0.19764,-0.65936 c 0.10869,-0.36266 0.15239,-0.61794 0.097,-0.56731 -0.0552,0.0507 -0.12734,-0.19078 -0.16006,-0.53651 -0.0328,-0.3457 -0.18786,-0.82553 -0.34479,-1.06628 l -0.28531,-0.43773 -0.52662,-0.0734 c -0.72671,-0.10125 -1.26787,0.1091 -1.88494,0.73265 l -0.52528,0.53072 -0.11591,0.77391 c -0.0638,0.42563 -0.10023,0.92231 -0.0811,1.1037 0.0917,0.86957 1.56059,1.92094 2.32387,1.66344 0.21292,-0.0718 0.70701,-0.0794 1.098,-0.0169 0.67584,0.10806 1.01768,0.0328 0.80413,-0.17727 z m -1.40572,-2.06513 c -0.13108,-0.12888 -0.1871,-0.28642 -0.12452,-0.35009 0.0627,-0.0637 0.18888,-0.0419 0.28061,0.0481 0.0917,0.0902 0.14777,0.24776 0.12452,0.3501 -0.0232,0.10232 -0.1495,0.0807 -0.28061,-0.0482 z m 1.13053,-2.04459 -0.32735,-0.29089 0.20058,0.29277 c 0.11032,0.16103 0.19266,0.48414 0.18299,0.71804 -0.01,0.23392 0.067,0.50532 0.17059,0.60316 l 0.18808,0.17803 -0.0438,-0.60504 c -0.0259,-0.35751 -0.17776,-0.72406 -0.37119,-0.89593 z m 1.33548,-4.18163 c -0.0654,-0.0644 -0.35711,0.154 -0.67065,0.50191 l -0.55488,0.61569 -0.38664,-0.0566 c -0.21266,-0.0311 -0.43077,-0.15354 -0.4847,-0.27195 -0.054,-0.11841 -0.31192,-0.43204 -0.57333,-0.69699 l -0.47524,-0.48175 0.40449,0.16748 c 0.22246,0.0921 0.56977,0.39005 0.77179,0.66214 l 0.3673,0.49469 0.16536,-0.16816 c 0.2302,-0.23412 0.11819,-0.57159 -0.18887,-0.569 -0.3253,0.003 -1.05906,-0.70871 -0.89892,-0.87156 0.0663,-0.0674 0.1411,-0.0386 0.16625,0.064 0.0252,0.10266 0.29141,0.22579 0.59167,0.2737 l 0.54597,0.0871 0.0895,0.30697 0.0895,0.30698 0.23328,-0.23726 c 0.1283,-0.1305 0.19114,-0.27868 0.13965,-0.32932 -0.0515,-0.0506 -0.11527,-0.2723 -0.1417,-0.49259 l -0.048,-0.40055 0.18997,0.32775 c 0.24468,0.42212 0.33492,0.31605 0.43992,-0.51706 0.10243,-0.8129 0.21493,-0.76489 0.29938,0.12772 l 0.062,0.65574 0.34383,-0.13502 0.34385,-0.13499 0.0912,-0.45729 c 0.12308,-0.61696 -0.6783,-2.41353 -1.38267,-3.09972 -0.54263,-0.52837 -1.74366,-1.08874 -2.13085,-0.99388 -0.10883,0.0266 -0.19612,0.25653 -0.19399,0.51077 0.005,0.60908 -0.24559,0.6973 -1.20597,0.42428 l -0.79636,-0.22639 -0.38023,0.38669 c -0.63937,0.65026 -0.81414,2.80612 -0.34447,4.24872 0.15453,0.47463 1.24401,1.34976 1.92865,1.54919 l 0.44242,0.12889 -0.54525,-0.54525 c -0.29982,-0.29996 -0.49406,-0.59732 -0.43147,-0.66099 0.0627,-0.0637 0.30985,0.0757 0.54944,0.30946 1.21683,1.18775 1.59673,0.90595 0.42067,-0.31205 l -0.87418,-0.90532 0.93585,0.84257 c 0.51473,0.46344 0.97895,0.79878 1.03162,0.74522 0.0526,-0.0535 0.22117,-0.0255 0.37445,0.0627 0.15329,0.088 0.42323,0.0597 0.59987,-0.0628 0.61776,-0.42853 1.20529,-1.06088 1.0905,-1.17374 z m -1.91981,-0.52173 c -0.0593,-0.0582 -0.13372,-0.28189 -0.1654,-0.49686 l -0.0576,-0.39087 0.19184,0.18173 c 0.10575,0.0997 0.18003,0.32345 0.16537,0.49687 -0.0145,0.17342 -0.0751,0.2676 -0.1344,0.20933 z m -4.46945,6.25998 -0.24054,-0.16794 0.36447,-0.22243 0.36447,-0.22242 -0.32743,-0.32882 -0.32742,-0.32883 0.35376,0.0454 c 0.19456,0.025 0.43024,-0.0323 0.52371,-0.12745 l 0.16993,-0.17284 -0.72736,-0.41952 c -0.40006,-0.23073 -0.80474,-0.43709 -0.89931,-0.45858 -0.0946,-0.0215 -0.15416,-0.11734 -0.13239,-0.21304 0.0218,-0.0957 0.21679,-0.0627 0.43348,0.0734 0.49637,0.31171 1.54401,0.56405 1.69676,0.40867 0.18615,-0.18932 -0.30353,-0.56499 -1.03813,-0.79643 -0.37477,-0.11808 -0.7426,-0.27485 -0.81737,-0.34839 -0.20296,-0.19955 0.73349,-0.0513 1.54033,0.24384 0.6685,0.24454 1.02771,0.23229 0.76491,-0.026 -0.0655,-0.0645 -0.58224,-0.26516 -1.14838,-0.44619 -0.97462,-0.31162 -1.52805,-0.57952 -0.92992,-0.45014 0.31963,0.0692 0.33458,-0.0184 0.0828,-0.48428 l -0.1823,-0.33721 -0.68703,0.005 -0.68702,0.005 -0.61444,0.62492 -0.61444,0.62491 -0.0942,0.73251 c -0.13448,1.0459 0.005,1.79248 0.43554,2.34791 0.49365,0.6354 1.49141,1.18696 2.09897,1.16033 0.58752,-0.0259 0.98759,-0.47867 0.63827,-0.72256 z"
         style="fill:#000000;stroke-width:0.613531"
         id="path1-78"
         sodipodi:nodetypes="czsccsscssccscccsccscsccsssccccaccccssscccsccsccccscccscccscsccccscscccsscsscscsccccccsscssscccccsscscscsssccscsscsccscscccsssccccccccccscccscccscccccsscscssscccssccssccccscccscsssccccscsscccccsccccccccccccccssscsscscscccccccscccc" /><path
         style="fill:#ffffff;stroke:none;stroke-width:0.323272"
         d="m 532.15948,527.12188 c -1.05833,-0.37682 -1.65276,-0.69359 -2.98342,-1.58987 -1.35009,-0.90936 -3.00973,-2.43343 -3.62723,-3.33093 -0.90625,-1.31719 -1.45328,-4.30951 -1.44744,-7.91769 0.005,-2.78566 0.27202,-4.64908 0.92884,-6.46994 0.51565,-1.4295 0.90188,-2.03073 1.95084,-3.03681 l 0.832,-0.798 2.09944,0.59916 c 2.19688,0.62697 3.74168,0.87299 4.41711,0.70347 0.60345,-0.15145 0.8969,-0.74848 1.0334,-2.10249 0.17423,-1.72824 0.32161,-1.92313 1.39209,-1.84076 1.74794,0.13451 5.17969,1.85051 7.00607,3.50328 2.29263,2.07471 5.14887,7.74172 5.38597,10.6862 0.0482,0.59873 0.007,1.47349 -0.0907,1.94392 l -0.1784,0.85533 -1.24052,0.49079 c -0.95916,0.37947 -1.24053,0.43981 -1.24053,0.26602 0,-0.12363 -0.0723,-0.90433 -0.1606,-1.7349 -0.43059,-4.04908 -0.86209,-4.20359 -1.39442,-0.49929 -0.38248,2.66148 -0.61896,2.86001 -1.53587,1.28934 -0.31002,-0.53108 -0.61678,-0.96847 -0.68168,-0.97196 -0.23508,-0.0127 0.0942,1.96637 0.58635,3.52363 0.0852,0.26977 -0.038,0.49657 -0.58388,1.07431 l -0.69195,0.73235 -0.28193,-1.04154 c -0.15506,-0.57285 -0.32614,-1.06886 -0.38017,-1.10225 -0.054,-0.0334 -0.70685,-0.16695 -1.45071,-0.29679 -1.62565,-0.28375 -2.68682,-0.72261 -2.82877,-1.16985 -0.12037,-0.37923 -0.67058,-0.4411 -0.8051,-0.0905 -0.33443,0.8715 2.30138,3.34075 3.5661,3.34075 0.45351,0 1.04414,0.60074 1.04414,1.06202 0,0.18819 -0.2321,0.59544 -0.51578,0.90498 l -0.51579,0.56282 -0.6084,-0.83725 c -0.84124,-1.15766 -2.047,-2.42217 -2.81335,-2.95042 -0.71395,-0.49213 -2.2266,-1.13385 -2.35948,-1.00098 -0.0469,0.0469 0.61536,0.80177 1.47169,1.67747 0.85634,0.87571 1.84372,1.98506 2.19419,2.46522 0.72122,0.98811 1.32489,1.30531 2.77449,1.45785 l 0.91673,0.0965 1.32186,-1.50603 c 1.25144,-1.42579 2.65809,-2.70972 2.96872,-2.70972 0.82205,0 -2.15365,3.17855 -4.05731,4.3339 -0.64999,0.39449 -1.59372,0.42947 -2.40795,0.0893 -0.31887,-0.13323 -0.7298,-0.23046 -0.91319,-0.21606 -0.18339,0.0144 -0.41404,0.0184 -0.51255,0.009 -0.30611,-0.0294 -2.83496,-2.06925 -5.01444,-4.04478 -1.1458,-1.03858 -2.11759,-1.85402 -2.15953,-1.81208 -0.0419,0.0419 0.97734,1.16323 2.26505,2.49176 1.28771,1.32853 2.6269,2.84322 2.97597,3.36596 1.59468,2.38805 0.11323,1.92791 -3.01855,-0.93757 -1.26612,-1.15846 -1.88482,-1.56733 -2.37291,-1.56814 -0.73008,-10e-4 -0.21695,0.91778 1.64408,2.94444 0.7118,0.77515 1.20167,1.40425 1.08859,1.398 -0.11307,-0.006 -0.55907,-0.13722 -0.99112,-0.29105 z m 6.95138,-8.25178 c 0.1699,-0.81565 -0.14382,-1.82011 -0.76134,-2.43763 -0.29531,-0.29531 -0.57201,-0.50183 -0.61489,-0.45895 -0.12028,0.12028 0.27353,2.28088 0.53659,2.94397 0.29208,0.73624 0.68099,0.71429 0.83964,-0.0474 z"
         id="path13"
         transform="scale(0.26458333)" /><path
         style="fill:#ffffff;stroke:none;stroke-width:0.323272"
         d="m 556.63132,545.92372 c -1.52699,-0.17806 -2.6402,-0.54564 -3.3278,-1.09883 -0.74828,-0.60202 -1.46079,-0.91616 -2.07793,-0.91616 -0.3439,0 -0.66384,-0.18688 -1.20084,-0.70142 -1.0532,-1.00914 -0.87333,-1.10945 1.61875,-0.90273 2.47726,0.20548 4.60392,0.064 8.67191,-0.57679 2.04397,-0.32198 3.66708,-0.67509 4.73441,-1.02997 1.53384,-0.51 2.34146,-0.58154 2.34146,-0.20743 0,0.0839 0.1643,0.15255 0.36511,0.15255 0.40261,0 2.20812,-1.75831 2.05685,-2.00307 -0.0473,-0.0766 -0.48917,0.0225 -0.98186,0.22022 -1.63674,0.65679 -6.66037,1.51002 -11.93727,2.02746 -2.6822,0.26302 -6.89432,0.2335 -7.93119,-0.0556 -0.3387,-0.0944 -0.79407,-0.55739 -1.66182,-1.68951 l -1.19527,-1.55944 0.60519,-1.23041 c 0.63343,-1.2878 1.17599,-2.00782 3.10695,-4.12318 l 1.16609,-1.27743 -0.62179,0.11519 c -0.34198,0.0634 -0.86132,0.22808 -1.1541,0.36606 -0.66064,0.31135 -2.2827,1.81474 -3.06553,2.84125 -0.32294,0.42348 -0.62872,0.76996 -0.67949,0.76996 -0.0508,0 -0.1796,-0.24137 -0.28627,-0.53638 -0.17076,-0.47222 -0.15473,-0.61326 0.13396,-1.17915 0.18035,-0.35352 0.4636,-1.26447 0.62944,-2.02432 0.16584,-0.75985 0.44436,-1.74392 0.61894,-2.18681 0.83997,-2.13102 2.63663,-3.95423 5.04743,-5.12203 2.41096,-1.16788 3.11535,-1.31379 6.2983,-1.30464 2.5024,0.007 2.83143,0.0416 4.08718,0.42732 2.69455,0.8277 4.4512,1.92212 7.08127,4.41174 l 1.44884,1.37148 0.38571,1.53333 c 0.21214,0.84334 0.36494,1.59253 0.33956,1.66489 -0.0254,0.0724 -0.54151,-0.28083 -1.14696,-0.78484 -1.15724,-0.96338 -2.41429,-1.71357 -2.87131,-1.71357 -0.36492,0 -0.49884,0.40596 -0.2631,0.79756 0.10553,0.17529 0.68174,0.7045 1.28046,1.17601 l 1.0886,0.85729 -0.93308,-0.0904 c -3.24082,-0.31418 -4.14818,-0.25962 -4.24742,0.25542 -0.0572,0.29663 0.43408,0.57447 2.02719,1.14655 1.65116,0.59293 2.87802,1.24741 3.16803,1.69002 0.35396,0.54022 0.66068,0.48455 0.93396,-0.16949 0.18434,-0.4412 0.19693,-0.66691 0.0603,-1.08098 -0.11417,-0.34595 -0.12161,-0.61818 -0.0219,-0.80311 0.22581,-0.41898 0.94102,-1.0473 1.05845,-0.92987 0.22658,0.22658 0.12045,4.55861 -0.15117,6.17084 l -0.27511,1.63289 -2.26075,2.26951 -2.26074,2.2695 -2.2822,0.49942 c -3.30983,0.72431 -5.29299,0.89076 -7.51937,0.63113 z m 4.37782,-1.46278 c 1.90951,-0.34566 2.88935,-0.65856 4.21407,-1.34576 1.04836,-0.54383 2.49112,-1.73579 2.31348,-1.91132 -0.0372,-0.0368 -0.48244,0.10212 -0.98939,0.30863 -0.84157,0.34282 -1.98657,0.61791 -7.67702,1.84448 -1.05141,0.22664 -2.25859,0.5241 -2.6826,0.66105 -0.74279,0.23989 -0.98263,0.5445 -0.57655,0.73222 0.33834,0.15641 4.0282,-0.0413 5.39801,-0.2893 z m -4.04614,-6.40758 c 1.04743,-0.10948 1.37155,-0.4022 0.85974,-0.77645 -0.38028,-0.27806 -1.24459,-0.26643 -2.56798,0.0346 -2.35989,0.53674 -1.19002,1.04481 1.70824,0.74188 z m 11.39353,-0.95988 c 0.61587,-0.62413 -2.00342,-1.16928 -6.50746,-1.3544 l -2.31123,-0.095 0.85533,0.55573 c 0.47043,0.30565 1.23957,0.67047 1.7092,0.8107 1.60735,0.47996 5.80743,0.53567 6.25416,0.083 z"
         id="path14"
         transform="scale(0.26458333)" /><path
         style="fill:#ffffff;stroke:none;stroke-width:0.323272"
         d="m 532.16745,553.18632 c -2.37574,-0.78889 -4.73722,-2.73849 -5.77911,-4.77115 -0.3967,-0.77395 -0.43415,-0.98701 -0.40933,-2.32925 0.015,-0.81256 0.17596,-2.49211 0.35765,-3.73233 l 0.33035,-2.25494 1.50611,-1.5237 c 2.9376,-2.97191 4.56517,-3.63532 7.91261,-3.22526 l 1.54044,0.1887 0.7286,1.14276 c 0.85344,1.33858 1.44346,2.98668 1.67861,4.68888 0.0924,0.66926 0.27763,1.44898 0.41152,1.73272 0.25491,0.54024 0.23079,0.67098 -0.78088,4.23295 -0.1536,0.5408 -0.14002,0.56541 0.81393,1.47532 1.47497,1.40689 2.44779,2.87339 1.90609,2.87339 -0.30623,0 -1.59018,-0.95705 -2.04764,-1.52629 -0.41824,-0.52045 -0.62539,-0.64295 -1.22717,-0.72571 -0.87571,-0.12044 -2.67096,0.14494 -2.84417,0.42043 -0.2933,0.46651 0.33133,1.3498 1.30908,1.85119 0.32218,0.1652 1.30191,0.40715 2.17719,0.53767 0.87529,0.13051 1.76101,0.348 1.96829,0.48331 0.36729,0.23976 0.36927,0.25179 0.0778,0.47345 -0.24343,0.1851 -0.58861,0.20438 -1.85425,0.10361 -1.81843,-0.1448 -4.33688,-0.14824 -5.98727,-0.008 -0.79721,0.0677 -1.36323,0.0336 -1.78841,-0.10757 z m 5.48506,-8.34451 c 0.10058,-0.92927 -1.07952,-1.90621 -1.63348,-1.35225 -0.20736,0.20736 -0.21378,0.31427 -0.0435,0.72524 0.41858,1.01055 1.58818,1.44784 1.67702,0.62701 z"
         id="path15"
         transform="scale(0.26458333)" /><path
         style="fill:#ffffff;stroke:none;stroke-width:0.323272"
         d="m 517.6113,545.39425 c -1.11799,-0.30835 -2.37478,-0.93275 -3.64537,-1.81111 -2.18695,-1.51184 -3.45519,-3.25537 -4.06173,-5.58393 -0.33234,-1.27585 -0.33296,-4.22316 -10e-4,-6.59756 l 0.23724,-1.69889 2.30495,-2.28842 2.30494,-2.28842 2.52141,-0.0855 2.5214,-0.0855 0.6253,1.13276 c 0.34391,0.62302 0.64389,1.30109 0.66662,1.50683 0.04,0.36169 0.0117,0.37235 -0.85287,0.32183 -1.79947,-0.10514 -0.9292,0.38259 3.16152,1.77183 3.88123,1.31811 4.96406,1.81802 4.96406,2.29178 0,0.25867 -1.39027,0.009 -3.19567,-0.57316 -2.35923,-0.76116 -4.19698,-1.18088 -5.17614,-1.18217 -1.5644,-0.002 -0.78559,0.57209 2.3629,1.74194 2.2571,0.83865 3.07047,1.26678 3.73529,1.96614 0.46976,0.49417 0.46881,0.88279 -0.003,1.06368 -0.70452,0.27035 -3.78891,-0.56537 -5.76772,-1.56278 -1.51574,-0.76399 -2.24022,-0.74311 -1.98619,0.0573 0.0607,0.19125 0.52775,0.5082 1.22055,0.82829 1.05664,0.4882 4.60856,2.45589 5.04356,2.79403 0.15726,0.12225 0.12769,0.23165 -0.13951,0.51607 -0.50732,0.54002 -1.26073,0.73019 -2.40662,0.60748 -0.54834,-0.0587 -0.99699,-0.0468 -0.99699,0.0264 0,0.0733 0.48987,0.61929 1.0886,1.21343 0.59873,0.59414 1.08859,1.12594 1.08859,1.18178 0,0.0558 -0.55984,0.44246 -1.2441,0.85915 -0.68426,0.41669 -1.24411,0.80455 -1.24411,0.86192 0,0.0574 0.24582,0.25622 0.54626,0.44191 1.02072,0.63084 1.06351,1.20064 0.15036,2.0024 -0.88993,0.78137 -2.2967,0.99132 -3.82253,0.5705 z"
         id="path16"
         transform="scale(0.26458333)" /></g><path
       style="fill:#93ac93;fill-opacity:1;stroke:#93ac93;stroke-width:0.498738;stroke-dasharray:none;stroke-opacity:1"
       d=""
       id="path64"
       transform="scale(0.26458333)" /><path
       style="fill:#93ac93;fill-opacity:1;stroke:#93ac93;stroke-width:0.498738;stroke-dasharray:none;stroke-opacity:1"
       d=""
       id="path68"
       transform="scale(0.26458333)" /><path
       style="fill:#93ac93;fill-opacity:1;stroke:#93ac93;stroke-width:0.498738;stroke-dasharray:none;stroke-opacity:1"
       d=""
       id="path73"
       transform="scale(0.26458333)" /><path
       style="fill:#ca7878;fill-opacity:1;stroke:#ca7977;stroke-width:0.249369;stroke-dasharray:none;stroke-opacity:1"
       d=""
       id="path85"
       transform="scale(0.26458333)" /><path
       style="fill:#ca7878;fill-opacity:1;stroke:#ca7977;stroke-width:0.249369;stroke-dasharray:none;stroke-opacity:1"
       d=""
       id="path88"
       transform="scale(0.26458333)" /><path
       style="fill:#e9afaf;fill-opacity:1;stroke:#ca7977;stroke-width:0.13786;stroke-dasharray:none;stroke-opacity:1"
       d="m 40.457366,72.339213 c 1.058443,-0.136786 1.563281,-0.04525 2.450623,0.444311 1.42494,0.786198 2.946224,2.438109 3.383858,3.674464 0.307038,0.867445 0.276829,1.011852 -0.306017,1.462733 -1.54556,1.195794 -1.704084,1.43002 -1.338257,1.977279 0.440002,0.658209 0.141368,1.106168 -0.999112,1.498634 -1.303348,0.448509 -2.563857,0.385958 -4.342771,-0.215526 -1.86888,-0.631811 -2.612372,-1.238653 -2.405804,-1.963322 0.128923,-0.451463 0.203393,-0.464538 0.590816,-0.103141 0.597614,0.55741 1.207667,0.796205 1.271934,0.497871 0.0288,-0.134157 -0.186706,-0.46696 -0.47912,-0.739702 -0.292394,-0.272719 -0.454905,-0.571578 -0.361223,-0.66405 0.09377,-0.09248 0.251798,-0.09225 0.351191,4.07e-4 0.09942,0.09278 0.252607,0.09772 0.340457,0.01095 0.08784,-0.08662 -0.168578,-0.38018 -0.569732,-0.652265 -0.732155,-0.496469 -0.740364,-0.991106 -0.01131,-0.682859 0.203108,0.08582 0.48157,0.04529 0.618875,-0.09025 0.143599,-0.141625 0.477909,-0.07742 0.786726,0.151116 0.295342,0.218684 0.652729,0.340614 0.794057,0.271105 0.162527,-0.07974 0.05718,-0.254359 -0.287922,-0.474861 -0.455061,-0.291088 -0.474007,-0.37912 -0.114986,-0.534035 0.338575,-0.146081 0.338909,-0.223989 0.0018,-0.366517 -0.342847,-0.144816 -0.337547,-0.226553 0.02602,-0.409577 0.675747,-0.340149 0.287693,-0.524399 -1.065334,-0.505833 -1.753289,0.02409 -1.484259,-0.284765 0.37876,-0.434721 2.020241,-0.162683 2.277867,-0.383125 0.474529,-0.405901 -1.570519,-0.01989 -1.928758,-0.475712 -0.397155,-0.505184 1.280548,-0.02472 1.575639,-0.49912 0.395196,-0.635332 -1.159205,-0.133756 -0.806224,-0.396525 0.81389,-0.605893 z"
       id="path132"
       sodipodi:nodetypes="ccscssccccscccccccccsccccccscc" /><path
       style="fill:#e9afaf;fill-opacity:1;stroke:#ca7977;stroke-width:0.0243703;stroke-dasharray:none;stroke-opacity:1"
       d="m 26.499243,74.21505 c 0.331367,-0.251968 0.67952,-0.448537 0.945976,-0.534212 0.120456,-0.03869 0.208966,-0.07968 0.196672,-0.09116 -0.0128,-0.01096 0.05158,-0.01809 0.142233,-0.0147 0.207827,0.0078 0.594813,-0.112664 0.70209,-0.218528 0.131405,-0.129747 0.441648,-0.21008 0.76108,-0.197128 0.163083,0.0067 0.295038,0.01594 0.293073,0.02062 -0.0381,0.09173 -0.255352,0.304502 -0.702754,0.689317 -0.639452,0.550328 -1.126507,1.089184 -1.827887,2.02195 -0.645775,0.858852 -1.001425,1.412031 -1.291532,2.008921 -0.286261,0.589084 -0.35857,0.680675 -0.536754,0.680476 -0.164939,-1.93e-4 -0.220375,0.06276 -0.256519,0.291104 -0.03467,0.218959 0.02695,0.766934 0.0932,0.828732 0.03691,0.03448 0.05515,0.01389 0.105292,-0.118606 0.181903,-0.479426 0.896281,-1.599251 1.41088,-2.211458 0.161058,-0.19163 0.41393,-0.508656 0.561989,-0.704524 0.805557,-1.065573 1.769936,-2.127752 2.570779,-2.831482 l 0.508644,-0.44696 0.221981,0.01887 c 0.122208,0.01034 0.222315,0.02971 0.222811,0.04281 -9.5e-5,0.01196 0.256651,0.05527 0.569318,0.09382 0.312691,0.03839 0.585475,0.08548 0.606129,0.104867 0.06854,0.06394 0.331815,0.84305 0.391539,1.158762 0.03229,0.170872 0.08959,0.66559 0.127211,1.099293 0.03772,0.433714 0.08524,0.78857 0.10576,0.788596 0.06299,3.1e-5 0.281737,-0.38074 0.360207,-0.627155 0.07356,-0.23326 0.07933,-1.184895 0.009,-1.683023 -0.02813,-0.199965 -0.02039,-0.23975 0.04394,-0.228045 0.176185,0.03226 0.332321,0.173448 0.409188,0.369743 0.09052,0.2311 0.590361,1.031798 0.653048,1.045968 0.02468,0.0051 0.09588,0.103307 0.159869,0.216684 0.395378,0.707748 0.535346,1.59454 0.379244,2.402681 -0.07558,0.391081 -0.221494,0.865342 -0.296415,0.960092 -0.03063,0.0386 -0.129001,0.223115 -0.21923,0.409395 l -0.163645,0.338839 -0.90312,0.892405 -0.903115,0.892378 -0.403706,0.201697 c -0.568391,0.283928 -1.719522,0.644173 -1.773328,0.554947 -0.0088,-0.01434 -0.209498,-0.0097 -0.44596,0.01073 -0.236462,0.02045 -0.705943,0.04602 -1.043257,0.05675 l -0.613299,0.01946 -0.471344,-0.267879 C 26.93934,82.112768 26.685535,81.978076 26.634612,81.960869 26.270976,81.838203 25.296335,80.945055 24.675584,80.165627 l -0.431773,-0.542052 -0.03602,-0.437793 c -0.05645,-0.685656 -0.07394,-1.945539 -0.02818,-2.030674 0.110468,-0.205616 0.709071,-1.122111 0.979583,-1.499958 0.35164,-0.491247 0.981032,-1.168041 1.339284,-1.440426 z m -0.467189,1.140164 c -0.794951,0.952995 -1.194226,1.880581 -1.162192,2.700138 0.0069,0.179644 0.02514,0.326555 0.04033,0.32657 0.01573,-2.61e-4 0.07597,-0.123917 0.135128,-0.275313 0.121903,-0.311638 0.417616,-0.838749 0.532455,-0.94879 0.07869,-0.07565 1.366346,-2.09145 1.573827,-2.464157 0.139989,-0.251376 0.178347,-0.411901 0.112689,-0.47287 -0.02658,-0.02485 -0.09245,-0.02763 -0.146547,-0.0066 -0.107165,0.04182 -0.610845,0.571007 -1.086281,1.140782 z m 2.829286,0.881719 c -0.366057,0.428942 -0.399621,0.48821 -0.318874,0.563531 0.144061,0.134389 0.427836,-0.04835 0.701012,-0.451383 0.07116,-0.104935 0.167546,-0.240423 0.214391,-0.300936 0.105695,-0.136912 0.171175,-0.3287 0.13438,-0.394193 -0.03349,-0.05963 -0.194122,0.0012 -0.319957,0.121376 -0.05052,0.04818 -0.235461,0.255984 -0.410927,0.461608 z m -2.977304,3.4183 c -0.161755,0.399951 0.503609,0.07951 1.481913,-0.713953 0.481522,-0.390453 1.333011,-1.143484 1.336111,-1.18155 0.0084,-0.102954 -1.035144,0.222377 -1.253882,0.390874 -0.08436,0.06431 -0.24011,0.179393 -0.346816,0.254774 -0.263548,0.186073 -1.158881,1.105524 -1.217327,1.249853 z m -0.0519,1.010773 c 0.04479,0.180521 0.222013,0.375826 0.386364,0.425761 0.167779,0.05085 0.197525,0.115012 0.215814,0.465857 l 0.01282,0.244114 0.179673,0.01501 c 0.364383,0.03046 1.109747,-0.07936 1.506699,-0.222008 0.287247,-0.103204 0.354909,-0.218693 0.208266,-0.355461 -0.09589,-0.08945 -0.475293,-0.102931 -1.031176,-0.03661 l -0.30234,0.03606 0.125446,-0.08535 c 0.06899,-0.04697 0.371978,-0.310809 0.673233,-0.586392 0.523575,-0.478772 0.548287,-0.506941 0.556981,-0.636974 0.0074,-0.109331 -0.0084,-0.140397 -0.08044,-0.158777 -0.122091,-0.0312 -0.532845,0.109448 -0.828107,0.283263 -0.479012,0.281905 -1.375785,0.520441 -1.504718,0.400186 -0.06163,-0.05747 -0.147168,0.09533 -0.118571,0.211375 z"
       id="path139"
       sodipodi:nodetypes="ccccccccccssccscscccccccccccccccccccccccccccccccccccccccccccccsccscccscsccssccccscssccccccscc" /><path
       style="fill:#e9afaf;fill-opacity:1;stroke:#ca7977;stroke-width:0.0086162;stroke-dasharray:none;stroke-opacity:1"
       d="m 36.868938,75.018245 c 0.03702,-0.0217 0.131735,-0.06086 0.210121,-0.08756 0.08139,-0.02786 0.186304,-0.0774 0.244947,-0.115872 0.09603,-0.06282 0.105033,-0.07204 0.138953,-0.14129 0.03009,-0.0611 0.04488,-0.07875 0.08548,-0.09917 0.114461,-0.05594 0.619057,-0.136594 1.156313,-0.184611 0.359189,-0.03217 1.339763,-0.08337 1.340173,-0.07006 3.29e-4,0.01046 -0.438228,0.05873 -0.980822,0.106717 -0.605326,0.05354 -1.084004,0.126649 -1.306673,0.199557 -0.12718,0.04166 -0.218813,0.111589 -0.220097,0.167886 -9.46e-4,0.0519 0.06152,0.110057 0.146857,0.136474 0.03611,0.01116 0.06747,0.02252 0.06972,0.0247 0.0025,0.0022 -0.02896,0.0076 -0.06877,0.0124 -0.223773,0.02624 -0.403317,0.113087 -0.74465,0.360438 -0.140973,0.1022 -0.263245,0.195704 -0.271848,0.20799 -0.008,0.01275 0.01203,0.35272 0.04584,0.75654 0.05965,0.711784 0.06936,0.972459 0.04594,1.235304 -0.03162,0.354833 -0.134333,0.502306 -0.227171,0.328839 -0.08625,-0.159888 -0.129935,-0.441304 -0.143335,-0.92183 -0.01541,-0.551461 0.03658,-1.19538 0.115986,-1.436791 0.06762,-0.204687 0.207301,-0.389505 0.362966,-0.47923 z"
       id="path140"
       sodipodi:nodetypes="ccccccssscccccccsccccc" /><path
       style="fill:#e9afaf;fill-opacity:1;stroke:#ca7977;stroke-width:0.0086162;stroke-dasharray:none;stroke-opacity:1"
       d="m 37.784509,75.428583 c 0.586828,0.08241 0.831216,0.100591 1.119084,0.08326 0.398502,-0.02402 0.650762,-0.075 0.919473,-0.185901 0.0896,-0.03697 0.163028,-0.06366 0.16329,-0.05927 1.04e-4,0.0045 -0.07915,0.05153 -0.176301,0.104839 -0.195886,0.10751 -0.291585,0.188463 -0.301797,0.255889 -0.0093,0.05937 0.03026,0.137164 0.08928,0.175885 0.0559,0.03613 0.0596,0.03577 -0.132425,0.01551 -0.2746,-0.02923 -0.660134,-0.0071 -0.931992,0.0535 -0.205903,0.04597 -0.331111,0.101035 -0.456931,0.201323 -0.140584,0.11209 -0.249484,0.150494 -0.373003,0.131608 -0.115928,-0.01761 -0.19345,-0.06069 -0.281978,-0.155347 -0.09914,-0.106418 -0.134257,-0.21825 -0.151213,-0.482202 l -0.01364,-0.213398 z"
       id="path141"
       sodipodi:nodetypes="ccscccccccccccc" /><path
       style="fill:#e9afaf;fill-opacity:1;stroke:#ca7977;stroke-width:0.0086162;stroke-dasharray:none;stroke-opacity:1"
       d="m 30.706587,65.825564 c 0.722744,-0.604914 2.31993,-0.861295 3.342788,-0.536655 0.355752,0.112949 0.498636,0.203344 0.813983,0.515182 0.340093,0.337091 0.908222,0.990818 0.898623,1.035326 -0.0029,0.01122 0.131927,0.189445 0.320365,0.424025 l 0.324686,0.404006 0.01559,0.46922 c 0.01943,0.583446 0.01867,1.016922 -0.0023,1.267313 -0.04529,0.543219 -0.182344,0.961999 -0.428355,1.309593 -0.204313,0.288761 -0.416169,0.489997 -0.940128,0.892591 -0.343055,0.263709 -0.306057,0.244494 -0.425856,0.219761 -0.80757,-0.166828 -1.197685,-0.297326 -1.702002,-0.569415 -0.116207,-0.0627 -0.176847,-0.08787 -0.190424,-0.07898 -0.02297,0.01412 -0.08121,-0.0227 -0.393988,-0.2506 -0.415515,-0.302902 -0.646633,-0.412136 -0.68501,-0.323727 -0.03066,0.06913 -0.232205,-0.222543 -0.69753,-1.00597 -0.165233,-0.278129 -0.311073,-0.51587 -0.324248,-0.528187 -0.01651,-0.0148 -0.228203,-0.02278 -0.668134,-0.0238 -0.653922,-0.0014 -0.840033,-0.01535 -1.063258,-0.07972 -0.155713,-0.04456 -0.219275,-0.08373 -0.220874,-0.134821 -0.0019,-0.0528 0.05848,-0.0906 0.236756,-0.148684 0.32802,-0.106953 0.832528,-0.134919 0.999202,-0.05537 0.06088,0.02971 0.148816,0.0069 0.250741,-0.06341 0.27593,-0.190508 0.66592,-0.632938 0.749994,-0.850851 0.0302,-0.07999 0.01981,-0.117492 -0.0509,-0.183747 -0.08945,-0.08355 -0.206515,-0.117864 -0.397334,-0.11673 -0.0971,3.83e-4 -0.220813,0.01198 -0.274775,0.0254 -0.285828,0.07161 -0.559878,0.219402 -0.85662,0.461648 -0.31182,0.254606 -0.585655,0.427447 -0.710144,0.448476 -0.06347,0.01072 -0.183858,-0.01523 -0.17293,-0.03737 0.0037,-0.0079 0.01073,-0.04704 0.01445,-0.08524 0.0062,-0.07222 0.04005,-0.1472 0.08893,-0.195065 0.01497,-0.01552 0.0442,-0.06475 0.06372,-0.109465 0.03453,-0.07809 0.04204,-0.0871 0.205347,-0.223764 0.09389,-0.07799 0.27013,-0.214727 0.392511,-0.303257 0.211565,-0.152924 0.242372,-0.18037 0.62209,-0.554899 0.414858,-0.409129 0.435939,-0.434438 0.545172,-0.638388 0.06021,-0.112791 0.192209,-0.26704 0.320108,-0.374093 z m 1.263848,3.388386 c 0.0019,0.0528 0.01049,0.06957 0.06291,0.118477 0.115682,0.107865 0.283977,0.175707 0.449716,0.181177 0.149145,0.0051 0.246379,-0.03524 0.344059,-0.142643 0.0173,-0.01803 0.02745,-0.05688 0.02585,-0.09292 -0.0022,-0.05155 -0.01102,-0.07013 -0.05774,-0.113652 -0.162496,-0.151533 -0.658617,-0.177475 -0.797183,-0.04179 -0.01905,0.01889 -0.02958,0.052 -0.02849,0.09104 z"
       id="path142"
       sodipodi:nodetypes="cccccccccccsccccccccccccccccsccccccccccccccccccc" /><path
       style="fill:#e9afaf;fill-opacity:1;stroke:#ca7977;stroke-width:0.0086162;stroke-dasharray:none;stroke-opacity:1"
       d="m 28.290869,69.784402 c 0.505438,0.0033 0.603205,0.01089 0.798883,0.06282 0.320528,0.08509 0.477093,0.173151 0.797623,0.448197 0.328744,0.282181 0.529377,0.394598 0.728155,0.407747 0.161319,0.01069 0.294488,0.097 0.320307,0.207785 0.01816,0.07743 -0.0052,0.126755 -0.07717,0.164547 -0.10315,0.05405 -0.245242,0.04493 -0.702955,-0.0454 -0.237557,-0.04689 -0.641846,-0.122025 -0.898242,-0.167246 -0.560103,-0.09866 -0.723409,-0.139528 -0.915126,-0.229452 -0.123009,-0.05766 -0.16256,-0.08389 -0.253628,-0.167874 -0.08869,-0.08157 -0.113126,-0.113443 -0.139436,-0.174571 -0.03909,-0.09331 -0.160946,-0.478633 -0.157059,-0.496609 8.09e-4,-0.0073 0.226001,-0.01178 0.498706,-0.01002 z"
       id="path143"
       sodipodi:nodetypes="ccccccsccccccc" /><path
       style="fill:#e9afaf;fill-opacity:1;stroke:#ca7977;stroke-width:0.0086162;stroke-dasharray:none;stroke-opacity:1"
       d="m 31.585672,71.178326 c 0.179098,-0.0045 0.227981,0.0012 0.342008,0.03968 0.144358,0.04902 0.322004,0.144447 0.449878,0.24291 l 0.08132,0.06185 -0.133497,0.163553 -0.133494,0.163539 -0.03369,-0.02099 c -0.05694,-0.03521 -0.715487,-0.571569 -0.749277,-0.609834 l -0.03176,-0.03562 z"
       id="path144"
       sodipodi:nodetypes="cccccccccc" /><path
       style="fill:#e9afaf;fill-opacity:1;stroke:#ca7977;stroke-width:0.0086162;stroke-dasharray:none;stroke-opacity:1"
       d="m 37.01275,63.959141 c 0.177366,-0.134702 0.489879,-0.302974 0.767757,-0.413456 0.108252,-0.043 0.160813,-0.0492 0.126345,-0.01507 -0.0065,0.0072 0.06796,-0.0124 0.166896,-0.04372 0.227764,-0.07196 0.524239,-0.144041 0.776129,-0.188925 0.960456,-0.17127 1.762301,-0.07865 2.528887,0.292098 0.149686,0.0724 0.242349,0.109568 0.247063,0.09921 0.0079,-0.01846 0.135678,0.06016 0.391833,0.241083 0.218673,0.154211 0.834361,0.729354 1.055539,0.986111 0.199027,0.230755 0.855987,1.014541 0.884219,1.054881 0.0202,0.02881 0.04392,0.533269 0.0927,1.965131 l 0.02014,0.591742 -0.703045,0.700149 -0.70303,0.700137 -0.408562,-0.116883 c -0.476017,-0.136326 -0.651516,-0.200454 -0.746139,-0.273771 -0.122988,-0.09491 -0.09945,-0.146582 0.141683,-0.311813 0.205838,-0.141147 0.283342,-0.206033 0.288759,-0.241748 0.0043,-0.02239 -0.0057,-0.02628 -0.05593,-0.02102 -0.151567,0.01384 -0.807782,0.294065 -1.613553,0.689137 -1.00279,0.491643 -1.589842,0.738431 -1.767996,0.743217 -0.103366,0.0028 -0.198078,-0.02901 -0.216331,-0.07281 -0.05081,-0.120445 0.304043,-0.380387 0.907805,-0.665265 0.967944,-0.456665 1.711453,-0.907534 1.977572,-1.1992 0.08684,-0.09417 0.101953,-0.13641 0.06402,-0.171764 -0.07713,-0.0719 -0.555833,0.09246 -1.257609,0.431871 -0.386602,0.18693 -0.515045,0.240954 -0.801047,0.336595 -0.753167,0.251864 -1.268007,0.195052 -1.166542,-0.128718 0.01674,-0.05244 0.03993,-0.082 0.148347,-0.187386 0.395072,-0.383564 1.374257,-0.895412 1.980349,-1.035517 0.335186,-0.07753 0.559521,-0.195196 0.596188,-0.312804 0.01816,-0.05787 -0.04194,-0.13759 -0.132449,-0.176127 -0.08768,-0.03688 -0.182991,-0.03109 -0.280754,0.0177 -0.09515,0.04741 -0.520076,0.190893 -0.821177,0.277127 -0.456832,0.130866 -0.91712,0.245683 -0.913262,0.227806 0.0018,-0.0099 -0.110568,0.01108 -0.250781,0.04717 -0.321226,0.08272 -0.530498,0.125175 -0.546081,0.110612 -0.05256,-0.04893 -0.05715,-0.276542 -0.0086,-0.422639 0.05583,-0.165429 0.145232,-0.284606 0.360779,-0.475597 0.252327,-0.223498 0.350277,-0.321446 0.349315,-0.348945 -4.6e-4,-0.03366 -0.147837,-0.0471 -0.603931,-0.05241 -0.45859,-0.0059 -0.672857,-0.014 -0.685434,-0.02573 -0.0146,-0.01429 0.02603,-0.26446 0.101694,-0.624699 0.03911,-0.185183 0.07274,-0.377253 0.07518,-0.426774 l 0.0045,-0.08999 -0.05244,-0.0021 c -0.02873,-0.0016 -0.137368,0.01346 -0.240695,0.03214 -0.165615,0.03003 -0.360016,0.03731 -0.384419,0.01454 -0.0052,-0.0042 -0.02029,-9.58e-4 -0.03374,0.0068 -0.05468,0.03112 -0.15828,-0.07172 -0.210287,-0.208062 -0.143678,-0.379462 0.105772,-0.975476 0.549415,-1.312271 z"
       id="path145"
       sodipodi:nodetypes="cccccsccccccccccccccccccscsccccccccccccccccccccccccc" /><path
       style="fill:#e9afaf;fill-opacity:1;stroke:#ca7977;stroke-width:0.0086162;stroke-dasharray:none;stroke-opacity:1"
       d="m 38.667674,76.593743 c 0.393357,-0.273092 0.614997,-0.388239 0.833346,-0.433233 0.0979,-0.02014 0.203237,-0.0207 0.224182,-0.0012 0.0052,0.0042 -0.02168,0.02296 -0.0573,0.04173 -0.133404,0.06965 -0.189426,0.165855 -0.151173,0.26117 0.02925,0.0734 0.157981,0.19147 0.34129,0.312362 0.197646,0.130992 0.30967,0.217898 0.305594,0.236733 -0.0019,0.0083 -0.07828,-0.03809 -0.171456,-0.104608 -0.390874,-0.279528 -0.801016,-0.460762 -0.875848,-0.386922 -0.02095,0.02017 -0.01681,0.118291 0.0054,0.138975 0.02771,0.0259 5e-6,0.03009 -0.07178,0.01136 -0.09258,-0.02416 -0.219134,-0.0299 -0.292416,-0.01331 -0.03216,0.0074 -0.104081,0.04441 -0.159669,0.08259 -0.09659,0.0661 -0.212133,0.115112 -0.250909,0.106357 -0.02797,-0.0063 0.02082,-0.04405 0.320631,-0.252755 z"
       id="path146"
       sodipodi:nodetypes="ccccccccccsccscc" /><path
       style="fill:#e9afaf;fill-opacity:1;stroke:#ca7977;stroke-width:0.0172324;stroke-dasharray:none;stroke-opacity:1"
       d="m 17.506051,63.202849 c -0.07276,0.347399 -0.06827,0.582413 0.01906,0.999007 0.233649,1.114728 1.012825,2.959868 1.616441,3.827908 0.216821,0.311743 0.469274,0.547021 0.645658,0.601683 0.07385,0.02265 0.155645,0.03274 0.182082,0.02087 0.103722,-0.04481 0.0194,-0.20406 -0.564824,-1.067955 -0.558014,-0.825075 -0.806986,-1.324144 -0.985402,-1.97531 -0.18126,-0.661495 -0.263047,-1.55434 -0.170955,-1.866102 0.0499,-0.16878 0.05231,-0.172037 0.137278,-0.175954 0.121765,-0.0057 0.25044,0.123372 0.503423,0.504331 0.11454,0.172675 0.217153,0.313843 0.227987,0.313822 0.01068,-2.5e-5 0.01757,-0.113916 0.01501,-0.25318 -0.0062,-0.33468 -0.08039,-0.518139 -0.288508,-0.712792 -0.136607,-0.127769 -0.164718,-0.171502 -0.200633,-0.305978 -0.04878,-0.184653 -0.03638,-0.342905 0.0451,-0.575877 0.08551,-0.244397 0.268525,-0.419759 0.533444,-0.511684 0.287653,-0.0994 0.67388,-0.163135 1.166133,-0.192521 0.477249,-0.02849 0.72993,-0.07074 0.79261,-0.132607 0.03574,-0.03529 0.02808,-0.04926 -0.05696,-0.106302 -0.05381,-0.0363 -0.125143,-0.08044 -0.158318,-0.09811 -0.05384,-0.02932 -0.04616,-0.06465 0.07559,-0.348547 0.227922,-0.530709 0.327323,-0.697355 0.456293,-0.764929 0.241699,-0.126576 0.68954,-0.07729 1.855483,0.204276 0.911308,0.22008 1.48515,0.409491 2.020705,0.665146 0.860722,0.411753 1.459616,1.016195 1.866981,1.884281 0.461477,0.983366 0.665381,2.627738 0.420402,3.390168 -0.03057,0.093 -0.100507,0.223184 -0.157201,0.289584 -0.08957,0.105225 -0.115036,0.11993 -0.200536,0.114207 -0.38198,-0.0246 -0.376273,-0.02544 -0.453066,0.07479 -0.07684,0.100293 -0.156527,0.333814 -0.195716,0.573649 -0.06232,0.380532 -0.24087,0.758376 -0.347117,0.734349 -0.0716,-0.01629 -0.142578,-0.264554 -0.169961,-0.59575 -0.05174,-0.625193 -0.150844,-0.952052 -0.387293,-1.2772 -0.08359,-0.114906 -0.164275,-0.208877 -0.179437,-0.20891 -0.01574,2.62e-4 -0.137224,0.141813 -0.271178,0.315272 -0.402035,0.520527 -0.58812,0.97022 -0.717416,1.734452 -0.103054,0.608897 -0.314495,1.14916 -0.572051,1.458107 -0.101002,0.121389 -0.127071,0.140165 -0.171355,0.121306 -0.03172,-0.01296 -0.0547,-0.05696 -0.05921,-0.110478 -0.01762,-0.220438 -0.103067,-0.318219 -0.311562,-0.356592 -0.206503,-0.03798 -0.433048,-0.150627 -0.694967,-0.34566 -0.332324,-0.247554 -0.430156,-0.295883 -0.486322,-0.240445 -0.02573,0.02531 -0.04522,0.124845 -0.04247,0.223668 0.002,0.09786 -0.0042,0.177064 -0.01339,0.175943 -0.0091,-9.55e-4 -0.265522,-0.04424 -0.569063,-0.09568 -0.303533,-0.0516 -0.656146,-0.09113 -0.783625,-0.08786 -0.244707,0.0062 -0.254949,0.01238 -0.385255,0.232626 -0.129407,0.218651 -0.829578,0.190572 -1.344344,-0.05392 -0.579205,-0.275141 -1.148551,-0.932563 -1.71546,-1.980765 -0.469199,-0.867631 -0.661571,-1.491763 -0.682381,-2.213914 -0.01911,-0.662741 0.102068,-1.058859 0.522345,-1.707668 0.126321,-0.195084 0.24612,-0.370872 0.266183,-0.390673 0.02006,-0.01981 0.0054,0.112468 -0.03262,0.29396 z m 5.465549,5.269994 c 0.08876,0.245026 0.627129,0.748128 0.883974,0.826113 0.10906,0.03365 0.10774,0.03329 0.136238,-0.03252 0.06658,-0.153434 -0.568508,-0.816859 -0.89235,-0.932091 -0.110688,-0.04001 -0.169332,0.02398 -0.127613,0.138648 z"
       id="path147"
       sodipodi:nodetypes="ccccccscccscscccssccccscscccsccccccccccccccccccccscscccccccc" /><path
       style="fill:#e9afaf;fill-opacity:1;stroke:#ca7977;stroke-width:0.0172324;stroke-dasharray:none;stroke-opacity:1"
       d="m 25.389303,67.19349 c 0.154113,0.143785 0.06579,2.103521 -0.0948,2.10331 -0.08039,-5.8e-5 -0.134578,-1.287497 -0.0699,-1.664031 0.05327,-0.309906 0.118343,-0.482698 0.164668,-0.439287 z"
       id="path148"
       sodipodi:nodetypes="ccccc" /><path
       style="fill:#e9afaf;fill-opacity:1;stroke:#ca7977;stroke-width:0.0172324;stroke-dasharray:none;stroke-opacity:1"
       d="m 22.214881,69.908317 c 0.58627,0.0064 0.846693,0.09623 0.784072,0.270513 -0.06368,0.177083 -0.358854,0.185702 -0.737563,0.0214 -0.168188,-0.07303 -0.468444,-0.251754 -0.46941,-0.279239 -3.29e-4,-0.01046 0.189945,-0.01517 0.422846,-0.01259 z"
       id="path149"
       sodipodi:nodetypes="cccccc" /><path
       style="fill:#e9afaf;fill-opacity:1;stroke:#ca7977;stroke-width:0.0172324;stroke-dasharray:none;stroke-opacity:1"
       d="m 13.760553,76.005684 c 0.991714,-0.866979 1.775475,-1.259984 3.201267,-1.605339 0.419578,-0.101614 2.213115,-0.472756 2.283019,-0.472408 0.07171,2.67e-4 0.618569,0.251847 1.023075,0.470528 0.359852,0.194524 0.521061,0.398167 0.405074,0.511584 -0.09124,0.08943 -0.378353,0.161128 -0.934837,0.233911 -0.309767,0.04049 -0.555313,0.08099 -0.545661,0.08999 0.01026,0.0088 0.295067,0.02505 0.634268,0.03565 0.711155,0.02218 1.01059,0.05611 1.257411,0.142518 l 0.175668,0.06192 -0.0071,0.089 c -0.0088,0.111646 -0.07772,0.154044 -0.310265,0.191093 -0.364107,0.05794 -1.533442,0.398185 -3.615769,1.052113 -2.634016,0.827162 -3.858715,1.249409 -4.268396,1.471578 -0.139368,0.07549 -0.267989,0.137967 -0.285774,0.138666 -0.01811,0.0011 -0.07697,-0.106451 -0.131522,-0.238137 -0.05465,-0.1316 -0.108556,-0.239359 -0.119929,-0.239439 -0.01068,2.5e-5 -0.158007,0.07157 -0.325766,0.15915 -0.329838,0.172234 -0.517357,0.241824 -0.529825,0.196824 -0.01369,-0.04972 0.122742,-0.25227 0.350042,-0.519393 0.316342,-0.371867 1.380371,-1.45083 1.74483,-1.769404 z m -1.212741,1.746767 c -7.55e-4,0.04034 0.02799,0.100763 0.06399,0.134404 0.05545,0.0518 0.08602,0.05342 0.198235,0.01118 0.175166,-0.06592 0.466461,-0.236224 1.077498,-0.63004 1.09477,-0.705575 2.020755,-1.113936 3.167503,-1.396864 0.521204,-0.128638 1.061194,-0.308426 1.182099,-0.393698 0.0832,-0.05866 0.08867,-0.07059 0.04619,-0.110134 -0.02609,-0.02427 -0.136922,-0.05007 -0.246522,-0.05707 -1.02439,-0.06279 -2.570778,0.437097 -4.038314,1.305428 -0.833655,0.493278 -1.447218,0.973744 -1.450662,1.136014 z"
       id="path150"
       sodipodi:nodetypes="cccsccccccccccccccccccssssccscsss" /><path
       style="fill:#e9afaf;fill-opacity:1;stroke:#ca7977;stroke-width:0.0172324;stroke-dasharray:none;stroke-opacity:1"
       d="m 13.836518,74.347495 c 1.115513,-0.790329 3.039599,-1.37629 4.42834,-1.348623 0.607876,0.01212 0.823155,0.07816 1.133323,0.347759 l 0.223194,0.194305 -0.09719,0.0055 c -0.05344,0.003 -0.402576,0.02055 -0.776033,0.03907 -0.816584,0.04045 -1.081013,0.0661 -1.615727,0.156687 -1.319244,0.223521 -2.596777,0.741844 -3.671171,1.489488 -0.383959,0.267187 -1.178352,1.050746 -1.424749,1.404958 -0.09513,0.136896 -0.238249,0.307022 -0.31795,0.378083 l -0.14542,0.128758 0.04236,-0.120695 c 0.201038,-0.571868 1.556592,-2.205526 2.220112,-2.67563 z"
       id="path151"
       sodipodi:nodetypes="cscccccscccccc" /><path
       style="fill:#e9afaf;fill-opacity:1;stroke:#ca7977;stroke-width:0.0172324;stroke-dasharray:none;stroke-opacity:1"
       d="m 13.729441,79.052035 c 1.000449,-0.621602 2.590705,-1.324887 4.698519,-2.077945 1.046844,-0.373986 1.821215,-0.674416 2.028824,-0.787092 0.240541,-0.13049 0.403403,-0.16324 0.76584,-0.153867 0.442739,0.0115 0.709192,0.09997 0.657711,0.218664 -0.03111,0.0708 -0.133983,0.163614 -0.272934,0.245312 -0.258935,0.152228 -4.5499,1.913852 -5.743682,2.358069 -1.397531,0.520029 -2.585912,0.823153 -2.65778,0.677916 -0.03491,-0.07058 0.178881,-0.267001 0.523538,-0.481048 z"
       id="path152"
       sodipodi:nodetypes="cccccssscc" /><path
       style="fill:#e9afaf;fill-opacity:1;stroke:#ca7977;stroke-width:0.0172324;stroke-dasharray:none;stroke-opacity:1"
       d="m 14.205286,80.231871 c 0.435213,-0.279605 1.695464,-0.860759 2.951635,-1.360999 0.755567,-0.300887 1.136201,-0.431702 1.389051,-0.477369 0.302468,-0.05465 0.588525,-0.150926 1.165806,-0.392348 0.965397,-0.403746 1.893877,-0.887397 2.147156,-1.118433 0.152398,-0.139911 0.179115,-0.127603 0.189914,0.08585 0.01,0.195724 -0.09822,0.417494 -0.32526,0.666925 -0.236997,0.260237 -0.258019,0.331788 -0.131561,0.449311 0.05,0.04675 0.105608,0.125434 0.123662,0.174965 0.132902,0.366634 -0.193436,1.365051 -0.691009,2.114132 -0.249826,0.375945 -0.65425,0.82952 -0.998826,1.119617 -1.007855,0.848948 -1.919298,1.116743 -3.625009,1.065124 -0.307386,-0.0093 -0.55417,-0.02151 -0.548451,-0.02714 0.0061,-0.0058 0.211411,-0.05922 0.457156,-0.118853 0.53435,-0.129819 1.239351,-0.362964 1.639956,-0.542306 0.60082,-0.269005 1.316271,-0.689639 1.792059,-1.053594 0.263075,-0.201234 0.732753,-0.66497 0.864463,-0.853457 0.265879,-0.380454 0.379734,-0.729326 0.214838,-0.658225 -0.07594,0.03273 -0.413506,0.298248 -0.679534,0.534218 -0.856585,0.760178 -1.724226,1.324861 -2.398451,1.560968 -0.371337,0.130023 -0.505148,0.14914 -0.745906,0.106513 -0.236539,-0.04185 -0.64116,-0.0076 -1.082304,0.09179 -0.870136,0.195981 -1.111191,0.224735 -1.420502,0.169406 -0.167139,-0.02983 -0.653948,-0.261922 -0.597966,-0.285079 2.091535,-0.864517 3.036302,-1.283113 3.281301,-1.453807 0.156175,-0.108783 0.08653,-0.148153 -0.166885,-0.09429 -0.112905,0.02416 -0.894209,0.267983 -1.736274,0.542124 -0.842073,0.274128 -1.552776,0.489235 -1.579343,0.478009 -0.06224,-0.02557 -0.04139,-0.138954 0.0534,-0.290945 0.0952,-0.152765 0.249456,-0.298467 0.457186,-0.432211 z m 3.549678,0.162463 c -0.03196,0.182261 0.654595,-0.165532 1.844265,-0.934398 0.970436,-0.627134 1.547751,-1.071239 1.544144,-1.187857 -0.0081,-0.26379 -1.498499,0.528872 -2.630882,1.399194 -0.329375,0.253172 -0.744632,0.649498 -0.757479,0.723103 z"
       id="path153"
       sodipodi:nodetypes="cscscccccccscccscscsccccccscccccccccc" /><path
       style="fill:#93ac93;fill-opacity:1;stroke:#93ac93;stroke-width:0.0243703;stroke-dasharray:none;stroke-opacity:1"
       d="m 8.6331744,13.936347 c 0.32703,-0.258435 0.543662,-0.376725 0.677767,-0.370128 0.101374,0.005 0.107896,0.01545 0.106566,0.162643 -7.3e-4,0.08653 -0.06253,0.360464 -0.137203,0.608847 -0.199802,0.664458 -0.228556,1.021578 -0.131459,1.633217 0.218997,1.379549 0.618236,2.425121 1.2009476,3.145055 0.822165,1.015771 3.256784,3.274546 4.99539,4.634517 1.282893,1.0036 2.936851,2.042989 5.262623,3.307383 3.361393,1.827364 4.8281,2.666603 5.094356,2.91495 0.04197,0.03911 0.433165,0.714405 0.869469,1.500736 1.386826,2.499374 2.215689,3.895612 3.234529,5.448744 0.325222,0.495737 0.616124,0.959683 0.646452,1.030971 0.03031,0.07115 0.222648,0.744775 0.427382,1.49666 0.957714,3.517384 1.436459,5.008392 2.083745,6.489717 l 0.373666,0.855086 -0.305229,-0.132955 c -0.460974,-0.20088 -0.759219,-0.496367 -1.327003,-1.315042 -1.204442,-1.7366 -1.647254,-2.210895 -1.547777,-1.657884 0.06818,0.37906 0.268253,0.796264 0.711605,1.483862 0.336381,0.521703 0.439517,0.755761 0.375029,0.85119 -0.04024,0.05867 -0.251743,-0.01461 -0.376891,-0.13084 -0.03695,-0.03433 -0.120477,-0.203207 -0.185493,-0.375217 -0.06508,-0.171984 -0.227014,-0.481402 -0.359964,-0.687573 -0.29661,-0.459912 -0.492882,-0.949137 -0.602864,-1.502619 -0.09861,-0.496078 -0.318745,-1.109517 -0.647084,-1.803185 -0.422238,-0.89208 -1.035129,-2.64002 -1.556381,-4.438761 -0.523954,-1.808094 -0.901358,-2.953728 -0.973084,-2.953822 -0.01903,-6.15e-4 -0.02854,0.05883 -0.01958,0.130665 0.03089,0.249605 0.420336,1.888367 0.778113,3.274106 0.530641,2.05547 0.809247,3.253385 0.844672,3.631636 0.03649,0.389261 0.227942,1.113843 0.487347,1.844072 0.131931,0.37146 0.228373,0.568927 0.351785,0.720479 0.297959,0.365959 0.497825,1.128285 0.328316,1.252663 -0.110727,0.08124 -0.218664,-0.06299 -0.326084,-0.434335 -0.142934,-0.494932 -0.300027,-0.65749 -0.427648,-0.442605 -0.04345,0.0733 -0.02895,0.146297 0.06773,0.33325 l 0.123532,0.239444 -0.291235,0.06493 c -0.160105,0.03568 -0.297652,0.04313 -0.305474,0.01644 -0.0071,-0.02679 -0.100504,-0.361242 -0.205902,-0.743485 -0.105392,-0.382222 -0.240135,-0.81513 -0.29942,-0.962016 -0.2015,-0.499278 -0.318235,-0.469337 -0.282216,0.07231 0.04952,0.745885 0.05939,1.154399 0.02865,1.184739 -0.136033,0.134293 -0.698774,-0.649789 -1.160447,-1.615206 -0.234405,-0.490742 -0.496974,-0.859091 -0.564727,-0.792225 -0.11673,0.115239 0.01662,0.509822 0.617817,1.828656 0.172372,0.378156 0.305376,0.695463 0.295573,0.705148 -0.02722,0.02684 -1.050654,-0.304317 -1.276214,-0.412965 -0.906666,-0.436968 -1.425336,-1.174246 -1.941801,-2.760188 -0.376222,-1.155316 -0.68152,-2.457584 -1.337233,-5.704045 -0.525706,-2.602735 -0.760256,-3.69614 -1.04254,-4.860024 -0.258943,-1.067729 -0.332793,-1.303412 -0.403296,-1.287427 -0.06399,0.0145 0.02046,0.64148 0.167587,1.243993 0.153869,0.630345 0.29218,1.405457 0.553615,3.103539 0.226457,1.470884 0.398145,2.4551 0.602512,3.454009 0.444429,2.172191 0.929242,5.339914 0.831959,5.435924 -0.127889,0.126219 -1.186318,-0.563578 -2.657952,-1.732233 -0.738302,-0.58629 -2.403324,-2.103736 -2.883822,-2.628233 -0.809204,-0.883354 -0.920612,-1.21935 -1.459184,-4.403417 -0.475395,-2.810476 -0.656341,-3.798869 -0.927447,-5.065639 -0.424585,-1.983986 -1.372068,-5.549405 -1.508535,-5.676699 -0.149397,-0.139386 -0.10267,0.144549 0.449916,2.734168 0.577503,2.706357 0.616427,2.909473 1.020293,5.32332 0.634668,3.793502 0.844824,5.411276 0.719044,5.535408 -0.04039,0.03985 -0.102449,-0.01102 -0.483325,-0.397142 -1.241116,-1.257803 -3.849654,-4.804128 -4.490798,-6.10534 -0.501577,-1.017945 -0.6428986,-1.635652 -0.8755016,-3.827058 -0.07131,-0.671855 -0.150558,-1.36658 -0.17608,-1.543817 -0.0255,-0.177231 -0.109906,-1.156726 -0.187513,-2.176637 -0.223916,-2.942555 -0.368799,-4.058647 -0.526917,-4.058856 -0.07362,-4.1e-5 -0.07933,0.361673 -0.027,1.70742 0.07714,1.981009 0.116037,2.565611 0.294128,4.418736 0.277196,2.884763 0.366665,4.329546 0.273782,4.42122 -0.02352,0.02321 -0.05711,0.0057 -0.09181,-0.04751 -0.09761,-0.150266 -1.9214087,-5.091259 -2.0869987,-5.654215 -0.4496528,-1.528823 -0.6608296,-2.70106 -0.7119448,-3.952179 -0.071536,-1.750928 0.2543828,-3.09688 1.0373848,-4.284191 0.264053,-0.400376 0.821796,-1.008577 1.1958267,-1.304128 z"
       id="path164"
       sodipodi:nodetypes="cccccscccccccccccsscsccccsccccccsccccccsccccccccsccccscssccccccscsscccccsccsccc" /><path
       style="fill:#93ac93;fill-opacity:1;stroke:#93ac93;stroke-width:0.0243703;stroke-dasharray:none;stroke-opacity:1"
       d="m 28.512463,41.294174 c 0.303843,0.403464 0.850243,1.609801 0.859077,1.896794 0.0041,0.131793 -0.0087,0.155005 -0.09669,0.174446 -0.05573,0.0124 -0.124612,6.18e-4 -0.153148,-0.02593 -0.108352,-0.101138 -0.780152,-2.106754 -0.724139,-2.162025 0.0084,-0.0081 0.06011,0.04409 0.114603,0.116807 z"
       id="path165"
       sodipodi:nodetypes="ccccccc" /><path
       style="fill:#93ac93;fill-opacity:1;stroke:#93ac93;stroke-width:0.0243703;stroke-dasharray:none;stroke-opacity:1"
       d="m 9.8357694,44.433245 c 0.2654596,-0.08002 0.4215006,-0.07418 0.7677696,0.0288 0.624961,0.185908 2.823891,0.427968 5.520815,0.607885 2.361709,0.15755 3.473642,0.179468 5.451418,0.107424 1.879334,-0.06847 1.877123,-0.06863 2.655512,0.192854 1.00513,0.337585 2.40365,0.929392 2.787919,1.179627 l 0.146168,0.09515 -0.116734,0.07605 c -0.300741,0.195788 -1.447097,0.550724 -2.921381,0.904601 -1.937002,0.464911 -3.539697,0.756568 -5.014495,0.912438 -1.339387,0.141538 -1.723859,0.222433 -1.601197,0.336837 0.161643,0.150706 3.073184,0.05656 4.643593,-0.150228 0.23906,-0.03137 0.946148,-0.156812 1.57136,-0.278507 2.465493,-0.479959 4.391184,-0.758924 5.25525,-0.761343 0.56499,-0.0016 0.905188,0.0705 1.198498,0.254031 l 0.129451,0.08098 -0.16183,0.120231 c -0.347208,0.258129 -1.266175,0.646091 -2.513842,1.061458 -2.675046,0.890542 -5.539618,1.292726 -7.059815,0.991187 -0.282673,-0.05613 -0.607048,-0.107792 -0.720753,-0.115128 -0.367182,-0.02333 -0.992604,-0.199367 -3.270493,-0.920834 -3.205401,-1.015206 -3.882637,-1.290761 -4.6493,-1.891883 -0.487731,-0.382376 -1.258855,-1.173667 -1.670393,-1.71404 -0.196465,-0.25798 -0.6733016,-1.032614 -0.6459086,-1.049362 0.004,-0.0018 0.102449,-0.03325 0.218439,-0.0682 z"
       id="path166"
       sodipodi:nodetypes="ccscccccccccccccccccccsccc" /><path
       style="fill:#93ac93;fill-opacity:1;stroke:#93ac93;stroke-width:0.0243703;stroke-dasharray:none;stroke-opacity:1"
       d="m 5.9606726,16.439135 c 0.072585,0.196883 0.1006642,0.481934 0.057114,0.580074 -0.032084,0.07233 -0.2190089,1.688033 -0.2483851,2.146961 -0.015647,0.244143 -0.022965,0.65455 -0.01632,0.912018 0.025801,0.996864 0.5241604,3.181341 1.2681002,5.558385 0.617456,1.972945 0.942592,2.779038 1.5972137,3.960099 0.48209,0.869726 0.787427,1.342126 1.8277346,2.827595 0.363268,0.518706 0.949241,1.366854 1.30219,1.884752 0.353007,0.517868 0.653474,0.952587 0.667827,0.965982 0.06656,0.06208 -0.909029,-0.160903 -1.342802,-0.306969 -0.267201,-0.09001 -0.474355,-0.142754 -0.460268,-0.117153 0.03842,0.0696 0.538215,0.384547 2.076268,1.308302 l 1.390051,0.83492 1.218346,1.314255 c 1.527709,1.647878 1.481155,1.592828 1.373287,1.624295 -0.1667,0.0485 -1.03326,0.05414 -1.629539,0.01039 -1.708853,-0.125373 -4.389449,-0.647183 -6.5934663,-1.283486 -0.90028,-0.259899 -0.839298,-0.245061 -0.838058,-0.204793 0.0013,0.04075 0.619157,0.363951 1.1504277,0.601927 0.23508,0.105383 0.698647,0.28283 1.03004,0.39432 1.3033646,0.438864 2.4819436,0.649411 6.1927746,1.108347 l 1.916729,0.236881 0.513374,0.30932 c 0.989968,0.596484 2.134848,1.438281 3.679591,2.70544 0.16748,0.138419 0.375708,0.301933 0.461609,0.364581 l 0.156115,0.113903 -1.132013,0.148612 c -1.7109,0.224591 -2.973154,0.351874 -3.459185,0.348806 -1.825407,-0.01156 -5.755746,-0.310376 -6.914449,-0.525708 C 10.190822,44.072742 9.0761214,43.426511 8.1440257,42.486658 7.1654707,41.49993 6.6732525,40.788731 5.6864023,38.935795 5.3869516,38.373547 4.9283194,37.542571 4.6672091,37.089193 3.627918,35.284539 3.4193038,34.487698 3.4603461,32.479189 3.4763591,31.695901 3.4088371,31.004659 3.2089099,29.905022 2.815248,27.739759 2.9861985,25.024406 3.7011459,22.086399 3.9337677,21.130377 4.4071323,19.674437 4.7434577,18.880454 4.8954789,18.521488 5.2067507,17.784265 5.435141,17.242146 5.6635258,16.700042 5.8574798,16.249488 5.8661486,16.24093 c 0.00833,-0.0081 0.051231,0.08063 0.094534,0.198076 z m 2.8566798,17.679808 c 0.112958,-0.01403 0.174992,0.0154 0.402956,0.19175 0.250829,0.194251 0.401503,0.259019 0.398771,0.171701 -8.77e-4,-0.03213 -0.502692,-0.368127 -0.703536,-0.470988 -0.04588,-0.02267 -0.100794,-0.0075 -0.151764,0.0437 l -0.08026,0.0803 z"
       id="path167"
       sodipodi:nodetypes="ccccccsccccccccsccccccscccccccscccccscccccccccc" /></g></svg>
